M48
METRIC,LZ,000.000
;FILE_FORMAT=3:3
;TYPE=PLATED
;Layer: PTH_Through
;EasyEDA v6.5.50, 2025-06-12 12:21:42
;5a30a698f2604c48907cf2a2958ab60a,01d3e6036b464142aa991e197958fd7d,10
;Gerber Generator version 0.2
;Holesize 1 = 0.306 mm
T01C0.306
;Holesize 2 = 0.701 mm
T02C0.701
;Holesize 3 = 0.801 mm
T03C0.801
;Holesize 4 = 0.901 mm
T04C0.901
;Holesize 5 = 0.915 mm
T05C0.915
;Holesize 6 = 1.000 mm
T06C1.000
;Holesize 7 = 1.021 mm
T07C1.021
;Holesize 8 = 1.101 mm
T08C1.101
;Holesize 9 = 1.200 mm
T09C1.200
;Holesize 10 = 1.400 mm
T10C1.400
;Holesize 11 = 1.501 mm
T11C1.501
%
G05
G90
T01
X036273Y023890
T02
X056499Y061214
X054499Y061214
T03
X039370Y054607G85X039370Y054613
X041910Y054607G85X041910Y054613
X036830Y054607G85X036830Y054613
X034290Y054607G85X034290Y054613
X031750Y054607G85X031750Y054613
X044450Y054607G85X044450Y054613
X046990Y054607G85X046990Y054613
X049530Y054607G85X049530Y054613
T04
X026250Y038000
X023750Y038000
X026250Y015000
X023750Y015000
X069000Y067270
X069000Y064730
X069000Y031270
X069000Y028730
X022479Y054483
X022479Y051943
T05
X039198Y046515G85X039243Y046515
X039220Y043849
X039220Y041182
X039220Y038515
X039220Y035848
X039220Y033181
X039220Y030514
X039220Y027847
X039220Y025180
X039220Y022513
X039220Y019846
X039220Y017179
X039220Y014512
X039220Y011845
X039221Y009177
X064621Y009177
X064620Y011845
X064620Y014512
X064620Y017179
X064620Y019846
X064620Y022513
X064620Y025180
X064620Y027847
X064620Y030514
X064620Y033181
X064620Y035848
X064620Y038515
X064620Y041182
X064620Y043849
X064620Y046516
X015875Y062143
X015875Y064643
X015875Y067143
T06
X053126Y055499
X058126Y055499
X052455Y067564
X065655Y067564
X051689Y022221
X051689Y009021
T07
X031350Y046890
X031350Y044350
X031350Y041810
X031350Y039270
X031350Y036730
X031350Y034190
X031350Y031650
X031350Y029110
X018650Y046890
X018650Y044350
X018650Y041810
X018650Y039270
X018650Y036730
X018650Y034190
X018650Y031650
X018650Y029110
X031350Y023890
X031350Y021350
X031350Y018810
X031350Y016270
X031350Y013730
X031350Y011190
X031350Y008650
X031350Y006110
X018650Y023890
X018650Y021350
X018650Y018810
X018650Y016270
X018650Y013730
X018650Y011190
X018650Y008650
X018650Y006110
T08
X014146Y034163
X014146Y036703
X014146Y039243
X014146Y041783
X014146Y011163
X014146Y013703
X014146Y016243
X014146Y018783
X061722Y063627
X061722Y061087
X061722Y058547
T09
X027432Y054356
X027432Y051816
T10
X026122Y065532
X021122Y065532
T11
X055000Y037000
X049000Y037000
M30
