G04 Layer: TopSilkscreenLayer*
G04 EasyEDA v6.5.50, 2025-06-12 12:21:42*
G04 5a30a698f2604c48907cf2a2958ab60a,01d3e6036b464142aa991e197958fd7d,10*
G04 Gerber Generator version 0.2*
G04 Scale: 100 percent, Rotated: No, Reflected: No *
G04 Dimensions in millimeters *
G04 leading zeros omitted , absolute positions ,4 integer and 5 decimal *
%FSLAX45Y45*%
%MOMM*%

%ADD10C,0.1524*%
%ADD11C,0.2032*%
%ADD12C,0.1501*%
%ADD13C,0.1270*%
%ADD14C,0.2540*%
%ADD15C,0.2030*%
%ADD16C,0.1199*%
%ADD17C,1.0000*%
%ADD18C,0.8001*%
%ADD19C,0.0111*%

%LPD*%
D10*
X5220588Y2949676D02*
G01*
X5220588Y3058642D01*
X5220588Y2949676D02*
G01*
X5173852Y2949676D01*
X5158359Y2954756D01*
X5153025Y2960090D01*
X5147945Y2970504D01*
X5147945Y2980918D01*
X5153025Y2991332D01*
X5158359Y2996412D01*
X5173852Y3001492D01*
X5220588Y3001492D02*
G01*
X5173852Y3001492D01*
X5158359Y3006826D01*
X5153025Y3011906D01*
X5147945Y3022320D01*
X5147945Y3038068D01*
X5153025Y3048482D01*
X5158359Y3053562D01*
X5173852Y3058642D01*
X5220588Y3058642D01*
X5113654Y2949676D02*
G01*
X5113654Y3027654D01*
X5108320Y3043148D01*
X5097906Y3053562D01*
X5082413Y3058642D01*
X5071999Y3058642D01*
X5056504Y3053562D01*
X5046090Y3043148D01*
X5040756Y3027654D01*
X5040756Y2949676D01*
X4933822Y2949676D02*
G01*
X5006466Y3058642D01*
X5006466Y2949676D02*
G01*
X4933822Y2949676D01*
X5006466Y3058642D02*
G01*
X4933822Y3058642D01*
X4826888Y2949676D02*
G01*
X4899533Y3058642D01*
X4899533Y2949676D02*
G01*
X4826888Y2949676D01*
X4899533Y3058642D02*
G01*
X4826888Y3058642D01*
X4792599Y2949676D02*
G01*
X4792599Y3058642D01*
X4792599Y2949676D02*
G01*
X4725034Y2949676D01*
X4792599Y3001492D02*
G01*
X4750943Y3001492D01*
X4792599Y3058642D02*
G01*
X4725034Y3058642D01*
X4690745Y2949676D02*
G01*
X4690745Y3058642D01*
X4690745Y2949676D02*
G01*
X4644009Y2949676D01*
X4628261Y2954756D01*
X4623181Y2960090D01*
X4617847Y2970504D01*
X4617847Y2980918D01*
X4623181Y2991332D01*
X4628261Y2996412D01*
X4644009Y3001492D01*
X4690745Y3001492D01*
X4654168Y3001492D02*
G01*
X4617847Y3058642D01*
X4583556Y2970504D02*
G01*
X4573143Y2965170D01*
X4557649Y2949676D01*
X4557649Y3058642D01*
X2575966Y4232300D02*
G01*
X2570632Y4242714D01*
X2560218Y4253128D01*
X2550058Y4258208D01*
X2529230Y4258208D01*
X2518816Y4253128D01*
X2508402Y4242714D01*
X2503068Y4232300D01*
X2497988Y4216552D01*
X2497988Y4190644D01*
X2503068Y4175150D01*
X2508402Y4164736D01*
X2518816Y4154322D01*
X2529230Y4149242D01*
X2550058Y4149242D01*
X2560218Y4154322D01*
X2570632Y4164736D01*
X2575966Y4175150D01*
X2610256Y4237380D02*
G01*
X2620670Y4242714D01*
X2636164Y4258208D01*
X2636164Y4149242D01*
D11*
X2601595Y3935374D02*
G01*
X2683383Y3935374D01*
X2337688Y3988968D02*
G01*
X2337688Y3906926D01*
X2296795Y3948074D02*
G01*
X2378583Y3948074D01*
D10*
X2575966Y1932304D02*
G01*
X2570632Y1942719D01*
X2560218Y1953132D01*
X2550058Y1958212D01*
X2529230Y1958212D01*
X2518816Y1953132D01*
X2508402Y1942719D01*
X2503068Y1932304D01*
X2497988Y1916556D01*
X2497988Y1890648D01*
X2503068Y1875154D01*
X2508402Y1864740D01*
X2518816Y1854327D01*
X2529230Y1849246D01*
X2550058Y1849246D01*
X2560218Y1854327D01*
X2570632Y1864740D01*
X2575966Y1875154D01*
X2615336Y1932304D02*
G01*
X2615336Y1937385D01*
X2620670Y1947798D01*
X2625750Y1953132D01*
X2636164Y1958212D01*
X2656992Y1958212D01*
X2667406Y1953132D01*
X2672486Y1947798D01*
X2677820Y1937385D01*
X2677820Y1926970D01*
X2672486Y1916556D01*
X2662072Y1901062D01*
X2610256Y1849246D01*
X2682900Y1849246D01*
D11*
X2601595Y1635379D02*
G01*
X2683383Y1635379D01*
X2337688Y1688972D02*
G01*
X2337688Y1606930D01*
X2296795Y1648079D02*
G01*
X2378583Y1648079D01*
D10*
X5225288Y6311900D02*
G01*
X5230622Y6301486D01*
X5246115Y6285992D01*
X5137150Y6285992D01*
X5246115Y6220460D02*
G01*
X5241036Y6235954D01*
X5225288Y6246368D01*
X5199379Y6251702D01*
X5183886Y6251702D01*
X5157724Y6246368D01*
X5142229Y6235954D01*
X5137150Y6220460D01*
X5137150Y6210045D01*
X5142229Y6194552D01*
X5157724Y6184137D01*
X5183886Y6178804D01*
X5199379Y6178804D01*
X5225288Y6184137D01*
X5241036Y6194552D01*
X5246115Y6210045D01*
X5246115Y6220460D01*
X5246115Y6113526D02*
G01*
X5241036Y6129020D01*
X5225288Y6139434D01*
X5199379Y6144513D01*
X5183886Y6144513D01*
X5157724Y6139434D01*
X5142229Y6129020D01*
X5137150Y6113526D01*
X5137150Y6103112D01*
X5142229Y6087363D01*
X5157724Y6076950D01*
X5183886Y6071870D01*
X5199379Y6071870D01*
X5225288Y6076950D01*
X5241036Y6087363D01*
X5246115Y6103112D01*
X5246115Y6113526D01*
X5209793Y6037579D02*
G01*
X5157724Y6037579D01*
X5142229Y6032500D01*
X5137150Y6022086D01*
X5137150Y6006337D01*
X5142229Y5995923D01*
X5157724Y5980429D01*
X5209793Y5980429D02*
G01*
X5137150Y5980429D01*
X5246115Y5946139D02*
G01*
X5137150Y5946139D01*
X5246115Y5946139D02*
G01*
X5246115Y5878576D01*
X5194300Y5946139D02*
G01*
X5194300Y5904484D01*
X5640565Y5791707D02*
G01*
X5635231Y5802121D01*
X5624817Y5812536D01*
X5614657Y5817615D01*
X5593829Y5817615D01*
X5583415Y5812536D01*
X5573001Y5802121D01*
X5567667Y5791707D01*
X5562587Y5775960D01*
X5562587Y5750052D01*
X5567667Y5734557D01*
X5573001Y5724144D01*
X5583415Y5713729D01*
X5593829Y5708650D01*
X5614657Y5708650D01*
X5624817Y5713729D01*
X5635231Y5724144D01*
X5640565Y5734557D01*
X5726671Y5817615D02*
G01*
X5674855Y5744971D01*
X5752833Y5744971D01*
X5726671Y5817615D02*
G01*
X5726671Y5708650D01*
X1146886Y3771900D02*
G01*
X1255852Y3771900D01*
X1146886Y3844544D02*
G01*
X1255852Y3844544D01*
X1198702Y3771900D02*
G01*
X1198702Y3844544D01*
X1167714Y3878834D02*
G01*
X1162380Y3889247D01*
X1146886Y3904995D01*
X1255852Y3904995D01*
X1146886Y1471904D02*
G01*
X1255852Y1471904D01*
X1146886Y1544548D02*
G01*
X1255852Y1544548D01*
X1198702Y1471904D02*
G01*
X1198702Y1544548D01*
X1172794Y1584172D02*
G01*
X1167714Y1584172D01*
X1157300Y1589252D01*
X1151966Y1594586D01*
X1146886Y1605000D01*
X1146886Y1625574D01*
X1151966Y1635988D01*
X1157300Y1641322D01*
X1167714Y1646402D01*
X1178128Y1646402D01*
X1188542Y1641322D01*
X1204036Y1630908D01*
X1255852Y1578838D01*
X1255852Y1651736D01*
X5992622Y6251955D02*
G01*
X6003036Y6262370D01*
X6008115Y6277863D01*
X6008115Y6298692D01*
X6003036Y6314186D01*
X5992622Y6324600D01*
X5982208Y6324600D01*
X5971793Y6319520D01*
X5966459Y6314186D01*
X5961379Y6303771D01*
X5950965Y6272529D01*
X5945886Y6262370D01*
X5940552Y6257036D01*
X5930138Y6251955D01*
X5914643Y6251955D01*
X5904229Y6262370D01*
X5899150Y6277863D01*
X5899150Y6298692D01*
X5904229Y6314186D01*
X5914643Y6324600D01*
X5940552Y6217665D02*
G01*
X5940552Y6155181D01*
X5950965Y6155181D01*
X5961379Y6160515D01*
X5966459Y6165595D01*
X5971793Y6176010D01*
X5971793Y6191504D01*
X5966459Y6201918D01*
X5956300Y6212331D01*
X5940552Y6217665D01*
X5930138Y6217665D01*
X5914643Y6212331D01*
X5904229Y6201918D01*
X5899150Y6191504D01*
X5899150Y6176010D01*
X5904229Y6165595D01*
X5914643Y6155181D01*
X5971793Y6120892D02*
G01*
X5899150Y6120892D01*
X5940552Y6120892D02*
G01*
X5956300Y6115812D01*
X5966459Y6105397D01*
X5971793Y6094984D01*
X5971793Y6079489D01*
X5971793Y6045200D02*
G01*
X5899150Y6013957D01*
X5971793Y5982715D02*
G01*
X5899150Y6013957D01*
X5971793Y5922518D02*
G01*
X5966459Y5932931D01*
X5956300Y5943345D01*
X5940552Y5948426D01*
X5930138Y5948426D01*
X5914643Y5943345D01*
X5904229Y5932931D01*
X5899150Y5922518D01*
X5899150Y5906770D01*
X5904229Y5896610D01*
X5914643Y5886195D01*
X5930138Y5880862D01*
X5940552Y5880862D01*
X5956300Y5886195D01*
X5966459Y5896610D01*
X5971793Y5906770D01*
X5971793Y5922518D01*
X2819400Y5625084D02*
G01*
X2819400Y5734050D01*
X2746756Y5625084D02*
G01*
X2746756Y5734050D01*
X2819400Y5676900D02*
G01*
X2746756Y5676900D01*
X2660395Y5625084D02*
G01*
X2712465Y5697728D01*
X2634488Y5697728D01*
X2660395Y5625084D02*
G01*
X2660395Y5734050D01*
X5829300Y6812787D02*
G01*
X5839713Y6818121D01*
X5855208Y6833615D01*
X5855208Y6724650D01*
X5889497Y6833615D02*
G01*
X5889497Y6724650D01*
X5941568Y6797294D02*
G01*
X5889497Y6745223D01*
X5910325Y6766052D02*
G01*
X5946647Y6724650D01*
X5487415Y1562100D02*
G01*
X5378450Y1562100D01*
X5487415Y1562100D02*
G01*
X5487415Y1515363D01*
X5482336Y1499870D01*
X5477002Y1494536D01*
X5466588Y1489455D01*
X5456174Y1489455D01*
X5445759Y1494536D01*
X5440679Y1499870D01*
X5435600Y1515363D01*
X5435600Y1562100D01*
X5435600Y1525778D02*
G01*
X5378450Y1489455D01*
X5461508Y1449831D02*
G01*
X5466588Y1449831D01*
X5477002Y1444752D01*
X5482336Y1439418D01*
X5487415Y1429004D01*
X5487415Y1408429D01*
X5482336Y1398015D01*
X5477002Y1392681D01*
X5466588Y1387602D01*
X5456174Y1387602D01*
X5445759Y1392681D01*
X5430265Y1403095D01*
X5378450Y1455165D01*
X5378450Y1382268D01*
X2520695Y2617876D02*
G01*
X2520695Y2695854D01*
X2515615Y2711348D01*
X2505202Y2721762D01*
X2489454Y2726842D01*
X2479040Y2726842D01*
X2463545Y2721762D01*
X2453131Y2711348D01*
X2448052Y2695854D01*
X2448052Y2617876D01*
X2413761Y2638704D02*
G01*
X2403347Y2633370D01*
X2387600Y2617876D01*
X2387600Y2726842D01*
X2520695Y317880D02*
G01*
X2520695Y395859D01*
X2515615Y411353D01*
X2505202Y421767D01*
X2489454Y426846D01*
X2479040Y426846D01*
X2463545Y421767D01*
X2453131Y411353D01*
X2448052Y395859D01*
X2448052Y317880D01*
X2408427Y343788D02*
G01*
X2408427Y338709D01*
X2403347Y328295D01*
X2398013Y322961D01*
X2387600Y317880D01*
X2367025Y317880D01*
X2356611Y322961D01*
X2351277Y328295D01*
X2346197Y338709D01*
X2346197Y349122D01*
X2351277Y359537D01*
X2361691Y375030D01*
X2413761Y426846D01*
X2340863Y426846D01*
X6757415Y2616200D02*
G01*
X6648450Y2616200D01*
X6757415Y2616200D02*
G01*
X6757415Y2579878D01*
X6752336Y2564129D01*
X6741922Y2553970D01*
X6731508Y2548636D01*
X6715759Y2543555D01*
X6689852Y2543555D01*
X6674358Y2548636D01*
X6663943Y2553970D01*
X6653529Y2564129D01*
X6648450Y2579878D01*
X6648450Y2616200D01*
X6757415Y2478023D02*
G01*
X6752336Y2488437D01*
X6741922Y2498852D01*
X6731508Y2503931D01*
X6715759Y2509265D01*
X6689852Y2509265D01*
X6674358Y2503931D01*
X6663943Y2498852D01*
X6653529Y2488437D01*
X6648450Y2478023D01*
X6648450Y2457195D01*
X6653529Y2446781D01*
X6663943Y2436368D01*
X6674358Y2431287D01*
X6689852Y2425954D01*
X6715759Y2425954D01*
X6731508Y2431287D01*
X6741922Y2436368D01*
X6752336Y2446781D01*
X6757415Y2457195D01*
X6757415Y2478023D01*
X6757415Y2391663D02*
G01*
X6648450Y2391663D01*
X6757415Y2321052D02*
G01*
X6648450Y2321052D01*
X6757415Y2357373D02*
G01*
X6757415Y2284729D01*
X6757415Y2170429D02*
G01*
X6648450Y2170429D01*
X6757415Y2170429D02*
G01*
X6757415Y2102865D01*
X6705600Y2170429D02*
G01*
X6705600Y2128773D01*
X6648450Y2170429D02*
G01*
X6648450Y2102865D01*
X6741922Y1995931D02*
G01*
X6752336Y2006345D01*
X6757415Y2021839D01*
X6757415Y2042668D01*
X6752336Y2058162D01*
X6741922Y2068576D01*
X6731508Y2068576D01*
X6721093Y2063495D01*
X6715759Y2058162D01*
X6710679Y2047747D01*
X6700265Y2016760D01*
X6695186Y2006345D01*
X6689852Y2001012D01*
X6679438Y1995931D01*
X6663943Y1995931D01*
X6653529Y2006345D01*
X6648450Y2021839D01*
X6648450Y2042668D01*
X6653529Y2058162D01*
X6663943Y2068576D01*
X6757415Y1961642D02*
G01*
X6648450Y1961642D01*
X6757415Y1961642D02*
G01*
X6757415Y1914905D01*
X6752336Y1899157D01*
X6747002Y1894078D01*
X6736588Y1888744D01*
X6721093Y1888744D01*
X6710679Y1894078D01*
X6705600Y1899157D01*
X6700265Y1914905D01*
X6700265Y1961642D01*
X6757415Y1844039D02*
G01*
X6757415Y1786889D01*
X6715759Y1818131D01*
X6715759Y1802637D01*
X6710679Y1792223D01*
X6705600Y1786889D01*
X6689852Y1781810D01*
X6679438Y1781810D01*
X6663943Y1786889D01*
X6653529Y1797304D01*
X6648450Y1813052D01*
X6648450Y1828545D01*
X6653529Y1844039D01*
X6658609Y1849373D01*
X6669024Y1854454D01*
X6731508Y1742439D02*
G01*
X6736588Y1742439D01*
X6747002Y1737105D01*
X6752336Y1732026D01*
X6757415Y1721612D01*
X6757415Y1700784D01*
X6752336Y1690370D01*
X6747002Y1685289D01*
X6736588Y1679955D01*
X6726174Y1679955D01*
X6715759Y1685289D01*
X6700265Y1695450D01*
X6648450Y1747520D01*
X6648450Y1674876D01*
X6757415Y1560576D02*
G01*
X6648450Y1560576D01*
X6757415Y1560576D02*
G01*
X6757415Y1524000D01*
X6752336Y1508505D01*
X6741922Y1498092D01*
X6731508Y1493012D01*
X6715759Y1487678D01*
X6689852Y1487678D01*
X6674358Y1493012D01*
X6663943Y1498092D01*
X6653529Y1508505D01*
X6648450Y1524000D01*
X6648450Y1560576D01*
X6757415Y1453387D02*
G01*
X6648450Y1453387D01*
X6757415Y1453387D02*
G01*
X6757415Y1385823D01*
X6705600Y1453387D02*
G01*
X6705600Y1411986D01*
X6648450Y1453387D02*
G01*
X6648450Y1385823D01*
X6757415Y1351534D02*
G01*
X6648450Y1310131D01*
X6757415Y1268476D02*
G01*
X6648450Y1310131D01*
X6757415Y1234186D02*
G01*
X6648450Y1234186D01*
X6757415Y1161542D02*
G01*
X6684772Y1234186D01*
X6710679Y1208278D02*
G01*
X6648450Y1161542D01*
X6757415Y1127252D02*
G01*
X6648450Y1127252D01*
X6757415Y1056639D02*
G01*
X6648450Y1056639D01*
X6757415Y1092962D02*
G01*
X6757415Y1020063D01*
X6757415Y905763D02*
G01*
X6648450Y905763D01*
X6757415Y905763D02*
G01*
X6757415Y859028D01*
X6752336Y843534D01*
X6747002Y838200D01*
X6736588Y833120D01*
X6726174Y833120D01*
X6715759Y838200D01*
X6710679Y843534D01*
X6705600Y859028D01*
X6705600Y905763D01*
X6705600Y869442D02*
G01*
X6648450Y833120D01*
X6689852Y798829D02*
G01*
X6689852Y736600D01*
X6700265Y736600D01*
X6710679Y741679D01*
X6715759Y746760D01*
X6721093Y757173D01*
X6721093Y772921D01*
X6715759Y783336D01*
X6705600Y793750D01*
X6689852Y798829D01*
X6679438Y798829D01*
X6663943Y793750D01*
X6653529Y783336D01*
X6648450Y772921D01*
X6648450Y757173D01*
X6653529Y746760D01*
X6663943Y736600D01*
X6721093Y702310D02*
G01*
X6648450Y671068D01*
X6721093Y639826D02*
G01*
X6648450Y671068D01*
X6757415Y605536D02*
G01*
X6752336Y600455D01*
X6757415Y595121D01*
X6762750Y600455D01*
X6757415Y605536D01*
X6721093Y600455D02*
G01*
X6648450Y600455D01*
X6705600Y503681D02*
G01*
X6715759Y509015D01*
X6721093Y524510D01*
X6721093Y540004D01*
X6715759Y555752D01*
X6705600Y560831D01*
X6695186Y555752D01*
X6689852Y545337D01*
X6684772Y519429D01*
X6679438Y509015D01*
X6669024Y503681D01*
X6663943Y503681D01*
X6653529Y509015D01*
X6648450Y524510D01*
X6648450Y540004D01*
X6653529Y555752D01*
X6663943Y560831D01*
X6689852Y469392D02*
G01*
X6689852Y407162D01*
X6700265Y407162D01*
X6710679Y412242D01*
X6715759Y417576D01*
X6721093Y427989D01*
X6721093Y443484D01*
X6715759Y453897D01*
X6705600Y464312D01*
X6689852Y469392D01*
X6679438Y469392D01*
X6663943Y464312D01*
X6653529Y453897D01*
X6648450Y443484D01*
X6648450Y427989D01*
X6653529Y417576D01*
X6663943Y407162D01*
X6757415Y310387D02*
G01*
X6648450Y310387D01*
X6705600Y310387D02*
G01*
X6715759Y320802D01*
X6721093Y331215D01*
X6721093Y346710D01*
X6715759Y357123D01*
X6705600Y367537D01*
X6689852Y372871D01*
X6679438Y372871D01*
X6663943Y367537D01*
X6653529Y357123D01*
X6648450Y346710D01*
X6648450Y331215D01*
X6653529Y320802D01*
X6663943Y310387D01*
D12*
X4201436Y612170D02*
G01*
X4201436Y516920D01*
X4201436Y612170D02*
G01*
X4260618Y612170D01*
X4201436Y566704D02*
G01*
X4237758Y566704D01*
X4201436Y516920D02*
G01*
X4260618Y516920D01*
X4290590Y580420D02*
G01*
X4290590Y516920D01*
X4290590Y562386D02*
G01*
X4304052Y575848D01*
X4313196Y580420D01*
X4326912Y580420D01*
X4336056Y575848D01*
X4340628Y562386D01*
X4340628Y516920D01*
X4424956Y580420D02*
G01*
X4424956Y516920D01*
X4424956Y566704D02*
G01*
X4416066Y575848D01*
X4406922Y580420D01*
X4393206Y580420D01*
X4384062Y575848D01*
X4375172Y566704D01*
X4370600Y553242D01*
X4370600Y544098D01*
X4375172Y530382D01*
X4384062Y521238D01*
X4393206Y516920D01*
X4406922Y516920D01*
X4416066Y521238D01*
X4424956Y530382D01*
X4455182Y612170D02*
G01*
X4455182Y516920D01*
X4455182Y566704D02*
G01*
X4464072Y575848D01*
X4473216Y580420D01*
X4486932Y580420D01*
X4496076Y575848D01*
X4504966Y566704D01*
X4509538Y553242D01*
X4509538Y544098D01*
X4504966Y530382D01*
X4496076Y521238D01*
X4486932Y516920D01*
X4473216Y516920D01*
X4464072Y521238D01*
X4455182Y530382D01*
X4539510Y612170D02*
G01*
X4539510Y516920D01*
X4569736Y553242D02*
G01*
X4624092Y553242D01*
X4624092Y562386D01*
X4619520Y571276D01*
X4614948Y575848D01*
X4606058Y580420D01*
X4592342Y580420D01*
X4583198Y575848D01*
X4574054Y566704D01*
X4569736Y553242D01*
X4569736Y544098D01*
X4574054Y530382D01*
X4583198Y521238D01*
X4592342Y516920D01*
X4606058Y516920D01*
X4614948Y521238D01*
X4624092Y530382D01*
X5801636Y612170D02*
G01*
X5801636Y516920D01*
X5801636Y612170D02*
G01*
X5842530Y612170D01*
X5856246Y607598D01*
X5860818Y603280D01*
X5865390Y594136D01*
X5865390Y584992D01*
X5860818Y575848D01*
X5856246Y571276D01*
X5842530Y566704D01*
X5801636Y566704D02*
G01*
X5842530Y566704D01*
X5856246Y562386D01*
X5860818Y557814D01*
X5865390Y548670D01*
X5865390Y534954D01*
X5860818Y525810D01*
X5856246Y521238D01*
X5842530Y516920D01*
X5801636Y516920D01*
X5917968Y580420D02*
G01*
X5908824Y575848D01*
X5899934Y566704D01*
X5895362Y553242D01*
X5895362Y544098D01*
X5899934Y530382D01*
X5908824Y521238D01*
X5917968Y516920D01*
X5931684Y516920D01*
X5940828Y521238D01*
X5949718Y530382D01*
X5954290Y544098D01*
X5954290Y553242D01*
X5949718Y566704D01*
X5940828Y575848D01*
X5931684Y580420D01*
X5917968Y580420D01*
X6007122Y580420D02*
G01*
X5997978Y575848D01*
X5988834Y566704D01*
X5984262Y553242D01*
X5984262Y544098D01*
X5988834Y530382D01*
X5997978Y521238D01*
X6007122Y516920D01*
X6020838Y516920D01*
X6029728Y521238D01*
X6038872Y530382D01*
X6043444Y544098D01*
X6043444Y553242D01*
X6038872Y566704D01*
X6029728Y575848D01*
X6020838Y580420D01*
X6007122Y580420D01*
X6087132Y612170D02*
G01*
X6087132Y534954D01*
X6091704Y521238D01*
X6100848Y516920D01*
X6109738Y516920D01*
X6073416Y580420D02*
G01*
X6105166Y580420D01*
X5072174Y301782D02*
G01*
X5072174Y233710D01*
X5076492Y219994D01*
X5085636Y210850D01*
X5099352Y206532D01*
X5108496Y206532D01*
X5121958Y210850D01*
X5131102Y219994D01*
X5135674Y233710D01*
X5135674Y301782D01*
X5229400Y288320D02*
G01*
X5220256Y297210D01*
X5206540Y301782D01*
X5188506Y301782D01*
X5174790Y297210D01*
X5165646Y288320D01*
X5165646Y279176D01*
X5170218Y270032D01*
X5174790Y265460D01*
X5183934Y260888D01*
X5211112Y251998D01*
X5220256Y247426D01*
X5224828Y242854D01*
X5229400Y233710D01*
X5229400Y219994D01*
X5220256Y210850D01*
X5206540Y206532D01*
X5188506Y206532D01*
X5174790Y210850D01*
X5165646Y219994D01*
X5259372Y301782D02*
G01*
X5259372Y206532D01*
X5259372Y301782D02*
G01*
X5300266Y301782D01*
X5313982Y297210D01*
X5318300Y292892D01*
X5322872Y283748D01*
X5322872Y274604D01*
X5318300Y265460D01*
X5313982Y260888D01*
X5300266Y256316D01*
X5259372Y256316D02*
G01*
X5300266Y256316D01*
X5313982Y251998D01*
X5318300Y247426D01*
X5322872Y238282D01*
X5322872Y224566D01*
X5318300Y215422D01*
X5313982Y210850D01*
X5300266Y206532D01*
X5259372Y206532D01*
D11*
X4048947Y4688997D02*
G01*
X4048947Y4593493D01*
X4048947Y4688997D02*
G01*
X4108129Y4688997D01*
X4048947Y4643531D02*
G01*
X4085523Y4643531D01*
X4048947Y4593493D02*
G01*
X4108129Y4593493D01*
X4138101Y4688997D02*
G01*
X4138101Y4593493D01*
X4138101Y4688997D02*
G01*
X4201855Y4593493D01*
X4201855Y4688997D02*
G01*
X4201855Y4593493D01*
X4048960Y4422233D02*
G01*
X4085536Y4326729D01*
X4121858Y4422233D02*
G01*
X4085536Y4326729D01*
X4151830Y4422233D02*
G01*
X4151830Y4326729D01*
X4151830Y4422233D02*
G01*
X4192724Y4422233D01*
X4206440Y4417661D01*
X4210758Y4413089D01*
X4215330Y4403945D01*
X4215330Y4390483D01*
X4210758Y4381339D01*
X4206440Y4376767D01*
X4192724Y4372195D01*
X4151830Y4372195D01*
X4048953Y4155607D02*
G01*
X4085529Y4060103D01*
X4121851Y4155607D02*
G01*
X4085529Y4060103D01*
X4151823Y4155607D02*
G01*
X4151823Y4060103D01*
X4151823Y4155607D02*
G01*
X4215323Y4060103D01*
X4215323Y4155607D02*
G01*
X4215323Y4060103D01*
X4048947Y3888897D02*
G01*
X4048947Y3793393D01*
X4048947Y3888897D02*
G01*
X4080951Y3888897D01*
X4094413Y3884325D01*
X4103557Y3875181D01*
X4108129Y3866037D01*
X4112701Y3852575D01*
X4112701Y3829715D01*
X4108129Y3816253D01*
X4103557Y3807109D01*
X4094413Y3797965D01*
X4080951Y3793393D01*
X4048947Y3793393D01*
X4151817Y3888897D02*
G01*
X4201855Y3888897D01*
X4174423Y3852575D01*
X4188139Y3852575D01*
X4197283Y3848003D01*
X4201855Y3843431D01*
X4206427Y3829715D01*
X4206427Y3820571D01*
X4201855Y3807109D01*
X4192711Y3797965D01*
X4178995Y3793393D01*
X4165279Y3793393D01*
X4151817Y3797965D01*
X4147245Y3802537D01*
X4142673Y3811681D01*
X4281865Y3888897D02*
G01*
X4236399Y3825143D01*
X4304471Y3825143D01*
X4281865Y3888897D02*
G01*
X4281865Y3793393D01*
X4048947Y3622197D02*
G01*
X4048947Y3526693D01*
X4048947Y3622197D02*
G01*
X4080951Y3622197D01*
X4094413Y3617625D01*
X4103557Y3608481D01*
X4108129Y3599337D01*
X4112701Y3585875D01*
X4112701Y3563015D01*
X4108129Y3549553D01*
X4103557Y3540409D01*
X4094413Y3531265D01*
X4080951Y3526693D01*
X4048947Y3526693D01*
X4151817Y3622197D02*
G01*
X4201855Y3622197D01*
X4174423Y3585875D01*
X4188139Y3585875D01*
X4197283Y3581303D01*
X4201855Y3576731D01*
X4206427Y3563015D01*
X4206427Y3553871D01*
X4201855Y3540409D01*
X4192711Y3531265D01*
X4178995Y3526693D01*
X4165279Y3526693D01*
X4151817Y3531265D01*
X4147245Y3535837D01*
X4142673Y3544981D01*
X4290755Y3622197D02*
G01*
X4245289Y3622197D01*
X4240971Y3581303D01*
X4245289Y3585875D01*
X4259005Y3590447D01*
X4272721Y3590447D01*
X4286183Y3585875D01*
X4295327Y3576731D01*
X4299899Y3563015D01*
X4299899Y3553871D01*
X4295327Y3540409D01*
X4286183Y3531265D01*
X4272721Y3526693D01*
X4259005Y3526693D01*
X4245289Y3531265D01*
X4240971Y3535837D01*
X4236399Y3544981D01*
X4048947Y3368197D02*
G01*
X4048947Y3272693D01*
X4048947Y3368197D02*
G01*
X4080951Y3368197D01*
X4094413Y3363625D01*
X4103557Y3354481D01*
X4108129Y3345337D01*
X4112701Y3331875D01*
X4112701Y3309015D01*
X4108129Y3295553D01*
X4103557Y3286409D01*
X4094413Y3277265D01*
X4080951Y3272693D01*
X4048947Y3272693D01*
X4151817Y3368197D02*
G01*
X4201855Y3368197D01*
X4174423Y3331875D01*
X4188139Y3331875D01*
X4197283Y3327303D01*
X4201855Y3322731D01*
X4206427Y3309015D01*
X4206427Y3299871D01*
X4201855Y3286409D01*
X4192711Y3277265D01*
X4178995Y3272693D01*
X4165279Y3272693D01*
X4151817Y3277265D01*
X4147245Y3281837D01*
X4142673Y3290981D01*
X4240971Y3345337D02*
G01*
X4240971Y3349909D01*
X4245289Y3359053D01*
X4249861Y3363625D01*
X4259005Y3368197D01*
X4277293Y3368197D01*
X4286183Y3363625D01*
X4290755Y3359053D01*
X4295327Y3349909D01*
X4295327Y3340765D01*
X4290755Y3331875D01*
X4281865Y3318159D01*
X4236399Y3272693D01*
X4299899Y3272693D01*
X4048947Y3088797D02*
G01*
X4048947Y2993293D01*
X4048947Y3088797D02*
G01*
X4080951Y3088797D01*
X4094413Y3084225D01*
X4103557Y3075081D01*
X4108129Y3065937D01*
X4112701Y3052475D01*
X4112701Y3029615D01*
X4108129Y3016153D01*
X4103557Y3007009D01*
X4094413Y2997865D01*
X4080951Y2993293D01*
X4048947Y2993293D01*
X4151817Y3088797D02*
G01*
X4201855Y3088797D01*
X4174423Y3052475D01*
X4188139Y3052475D01*
X4197283Y3047903D01*
X4201855Y3043331D01*
X4206427Y3029615D01*
X4206427Y3020471D01*
X4201855Y3007009D01*
X4192711Y2997865D01*
X4178995Y2993293D01*
X4165279Y2993293D01*
X4151817Y2997865D01*
X4147245Y3002437D01*
X4142673Y3011581D01*
X4245289Y3088797D02*
G01*
X4295327Y3088797D01*
X4268149Y3052475D01*
X4281865Y3052475D01*
X4290755Y3047903D01*
X4295327Y3043331D01*
X4299899Y3029615D01*
X4299899Y3020471D01*
X4295327Y3007009D01*
X4286183Y2997865D01*
X4272721Y2993293D01*
X4259005Y2993293D01*
X4245289Y2997865D01*
X4240971Y3002437D01*
X4236399Y3011581D01*
X4048947Y1501297D02*
G01*
X4048947Y1405793D01*
X4048947Y1501297D02*
G01*
X4080951Y1501297D01*
X4094413Y1496725D01*
X4103557Y1487581D01*
X4108129Y1478437D01*
X4112701Y1464975D01*
X4112701Y1442115D01*
X4108129Y1428653D01*
X4103557Y1419509D01*
X4094413Y1410365D01*
X4080951Y1405793D01*
X4048947Y1405793D01*
X4142673Y1483009D02*
G01*
X4151817Y1487581D01*
X4165279Y1501297D01*
X4165279Y1405793D01*
X4204395Y1501297D02*
G01*
X4254433Y1501297D01*
X4227255Y1464975D01*
X4240971Y1464975D01*
X4249861Y1460403D01*
X4254433Y1455831D01*
X4259005Y1442115D01*
X4259005Y1432971D01*
X4254433Y1419509D01*
X4245289Y1410365D01*
X4231827Y1405793D01*
X4218111Y1405793D01*
X4204395Y1410365D01*
X4199823Y1414937D01*
X4195505Y1424081D01*
X4048947Y1755297D02*
G01*
X4048947Y1659793D01*
X4048947Y1755297D02*
G01*
X4080951Y1755297D01*
X4094413Y1750725D01*
X4103557Y1741581D01*
X4108129Y1732437D01*
X4112701Y1718975D01*
X4112701Y1696115D01*
X4108129Y1682653D01*
X4103557Y1673509D01*
X4094413Y1664365D01*
X4080951Y1659793D01*
X4048947Y1659793D01*
X4142673Y1737009D02*
G01*
X4151817Y1741581D01*
X4165279Y1755297D01*
X4165279Y1659793D01*
X4199823Y1732437D02*
G01*
X4199823Y1737009D01*
X4204395Y1746153D01*
X4208967Y1750725D01*
X4218111Y1755297D01*
X4236399Y1755297D01*
X4245289Y1750725D01*
X4249861Y1746153D01*
X4254433Y1737009D01*
X4254433Y1727865D01*
X4249861Y1718975D01*
X4240971Y1705259D01*
X4195505Y1659793D01*
X4259005Y1659793D01*
X4048947Y2021997D02*
G01*
X4048947Y1926493D01*
X4048947Y2021997D02*
G01*
X4080951Y2021997D01*
X4094413Y2017425D01*
X4103557Y2008281D01*
X4108129Y1999137D01*
X4112701Y1985675D01*
X4112701Y1962815D01*
X4108129Y1949353D01*
X4103557Y1940209D01*
X4094413Y1931065D01*
X4080951Y1926493D01*
X4048947Y1926493D01*
X4142673Y2003709D02*
G01*
X4151817Y2008281D01*
X4165279Y2021997D01*
X4165279Y1926493D01*
X4240971Y2021997D02*
G01*
X4195505Y1958243D01*
X4263577Y1958243D01*
X4240971Y2021997D02*
G01*
X4240971Y1926493D01*
X4048947Y2288697D02*
G01*
X4048947Y2193193D01*
X4048947Y2288697D02*
G01*
X4080951Y2288697D01*
X4094413Y2284125D01*
X4103557Y2274981D01*
X4108129Y2265837D01*
X4112701Y2252375D01*
X4112701Y2229515D01*
X4108129Y2216053D01*
X4103557Y2206909D01*
X4094413Y2197765D01*
X4080951Y2193193D01*
X4048947Y2193193D01*
X4147245Y2265837D02*
G01*
X4147245Y2270409D01*
X4151817Y2279553D01*
X4156389Y2284125D01*
X4165279Y2288697D01*
X4183567Y2288697D01*
X4192711Y2284125D01*
X4197283Y2279553D01*
X4201855Y2270409D01*
X4201855Y2261265D01*
X4197283Y2252375D01*
X4188139Y2238659D01*
X4142673Y2193193D01*
X4206427Y2193193D01*
X4299899Y2288697D02*
G01*
X4254433Y2193193D01*
X4236399Y2288697D02*
G01*
X4299899Y2288697D01*
X4048947Y2555397D02*
G01*
X4048947Y2459893D01*
X4048947Y2555397D02*
G01*
X4080951Y2555397D01*
X4094413Y2550825D01*
X4103557Y2541681D01*
X4108129Y2532537D01*
X4112701Y2519075D01*
X4112701Y2496215D01*
X4108129Y2482753D01*
X4103557Y2473609D01*
X4094413Y2464465D01*
X4080951Y2459893D01*
X4048947Y2459893D01*
X4147245Y2532537D02*
G01*
X4147245Y2537109D01*
X4151817Y2546253D01*
X4156389Y2550825D01*
X4165279Y2555397D01*
X4183567Y2555397D01*
X4192711Y2550825D01*
X4197283Y2546253D01*
X4201855Y2537109D01*
X4201855Y2527965D01*
X4197283Y2519075D01*
X4188139Y2505359D01*
X4142673Y2459893D01*
X4206427Y2459893D01*
X4290755Y2541681D02*
G01*
X4286183Y2550825D01*
X4272721Y2555397D01*
X4263577Y2555397D01*
X4249861Y2550825D01*
X4240971Y2537109D01*
X4236399Y2514503D01*
X4236399Y2491643D01*
X4240971Y2473609D01*
X4249861Y2464465D01*
X4263577Y2459893D01*
X4268149Y2459893D01*
X4281865Y2464465D01*
X4290755Y2473609D01*
X4295327Y2487071D01*
X4295327Y2491643D01*
X4290755Y2505359D01*
X4281865Y2514503D01*
X4268149Y2519075D01*
X4263577Y2519075D01*
X4249861Y2514503D01*
X4240971Y2505359D01*
X4236399Y2491643D01*
X4048947Y2822097D02*
G01*
X4048947Y2726593D01*
X4048947Y2822097D02*
G01*
X4080951Y2822097D01*
X4094413Y2817525D01*
X4103557Y2808381D01*
X4108129Y2799237D01*
X4112701Y2785775D01*
X4112701Y2762915D01*
X4108129Y2749453D01*
X4103557Y2740309D01*
X4094413Y2731165D01*
X4080951Y2726593D01*
X4048947Y2726593D01*
X4147245Y2799237D02*
G01*
X4147245Y2803809D01*
X4151817Y2812953D01*
X4156389Y2817525D01*
X4165279Y2822097D01*
X4183567Y2822097D01*
X4192711Y2817525D01*
X4197283Y2812953D01*
X4201855Y2803809D01*
X4201855Y2794665D01*
X4197283Y2785775D01*
X4188139Y2772059D01*
X4142673Y2726593D01*
X4206427Y2726593D01*
X4290755Y2822097D02*
G01*
X4245289Y2822097D01*
X4240971Y2781203D01*
X4245289Y2785775D01*
X4259005Y2790347D01*
X4272721Y2790347D01*
X4286183Y2785775D01*
X4295327Y2776631D01*
X4299899Y2762915D01*
X4299899Y2753771D01*
X4295327Y2740309D01*
X4286183Y2731165D01*
X4272721Y2726593D01*
X4259005Y2726593D01*
X4245289Y2731165D01*
X4240971Y2735737D01*
X4236399Y2744881D01*
X6080947Y2834797D02*
G01*
X6080947Y2739293D01*
X6080947Y2834797D02*
G01*
X6112951Y2834797D01*
X6126413Y2830225D01*
X6135557Y2821081D01*
X6140129Y2811937D01*
X6144701Y2798475D01*
X6144701Y2775615D01*
X6140129Y2762153D01*
X6135557Y2753009D01*
X6126413Y2743865D01*
X6112951Y2739293D01*
X6080947Y2739293D01*
X6201851Y2834797D02*
G01*
X6188389Y2830225D01*
X6179245Y2816509D01*
X6174673Y2793903D01*
X6174673Y2780187D01*
X6179245Y2757581D01*
X6188389Y2743865D01*
X6201851Y2739293D01*
X6210995Y2739293D01*
X6224711Y2743865D01*
X6233855Y2757581D01*
X6238427Y2780187D01*
X6238427Y2793903D01*
X6233855Y2816509D01*
X6224711Y2830225D01*
X6210995Y2834797D01*
X6201851Y2834797D01*
X6322755Y2834797D02*
G01*
X6277289Y2834797D01*
X6272971Y2793903D01*
X6277289Y2798475D01*
X6291005Y2803047D01*
X6304721Y2803047D01*
X6318183Y2798475D01*
X6327327Y2789331D01*
X6331899Y2775615D01*
X6331899Y2766471D01*
X6327327Y2753009D01*
X6318183Y2743865D01*
X6304721Y2739293D01*
X6291005Y2739293D01*
X6277289Y2743865D01*
X6272971Y2748437D01*
X6268399Y2757581D01*
X6112951Y2568097D02*
G01*
X6112951Y2472593D01*
X6080947Y2568097D02*
G01*
X6144701Y2568097D01*
X6174673Y2568097D02*
G01*
X6238427Y2472593D01*
X6238427Y2568097D02*
G01*
X6174673Y2472593D01*
X6272971Y2545237D02*
G01*
X6272971Y2549809D01*
X6277289Y2558953D01*
X6281861Y2563525D01*
X6291005Y2568097D01*
X6309293Y2568097D01*
X6318183Y2563525D01*
X6322755Y2558953D01*
X6327327Y2549809D01*
X6327327Y2540665D01*
X6322755Y2531775D01*
X6313865Y2518059D01*
X6268399Y2472593D01*
X6331899Y2472593D01*
X6080947Y2301397D02*
G01*
X6080947Y2205893D01*
X6080947Y2301397D02*
G01*
X6121841Y2301397D01*
X6135557Y2296825D01*
X6140129Y2292253D01*
X6144701Y2283109D01*
X6144701Y2273965D01*
X6140129Y2265075D01*
X6135557Y2260503D01*
X6121841Y2255931D01*
X6080947Y2255931D01*
X6112951Y2255931D02*
G01*
X6144701Y2205893D01*
X6174673Y2301397D02*
G01*
X6238427Y2205893D01*
X6238427Y2301397D02*
G01*
X6174673Y2205893D01*
X6272971Y2278537D02*
G01*
X6272971Y2283109D01*
X6277289Y2292253D01*
X6281861Y2296825D01*
X6291005Y2301397D01*
X6309293Y2301397D01*
X6318183Y2296825D01*
X6322755Y2292253D01*
X6327327Y2283109D01*
X6327327Y2273965D01*
X6322755Y2265075D01*
X6313865Y2251359D01*
X6268399Y2205893D01*
X6331899Y2205893D01*
X6080947Y2034697D02*
G01*
X6080947Y1939193D01*
X6080947Y2034697D02*
G01*
X6112951Y2034697D01*
X6126413Y2030125D01*
X6135557Y2020981D01*
X6140129Y2011837D01*
X6144701Y1998375D01*
X6144701Y1975515D01*
X6140129Y1962053D01*
X6135557Y1952909D01*
X6126413Y1943765D01*
X6112951Y1939193D01*
X6080947Y1939193D01*
X6201851Y2034697D02*
G01*
X6188389Y2030125D01*
X6179245Y2016409D01*
X6174673Y1993803D01*
X6174673Y1980087D01*
X6179245Y1957481D01*
X6188389Y1943765D01*
X6201851Y1939193D01*
X6210995Y1939193D01*
X6224711Y1943765D01*
X6233855Y1957481D01*
X6238427Y1980087D01*
X6238427Y1993803D01*
X6233855Y2016409D01*
X6224711Y2030125D01*
X6210995Y2034697D01*
X6201851Y2034697D01*
X6313865Y2034697D02*
G01*
X6268399Y1970943D01*
X6336471Y1970943D01*
X6313865Y2034697D02*
G01*
X6313865Y1939193D01*
X6080947Y1767997D02*
G01*
X6080947Y1672493D01*
X6080947Y1767997D02*
G01*
X6112951Y1767997D01*
X6126413Y1763425D01*
X6135557Y1754281D01*
X6140129Y1745137D01*
X6144701Y1731675D01*
X6144701Y1708815D01*
X6140129Y1695353D01*
X6135557Y1686209D01*
X6126413Y1677065D01*
X6112951Y1672493D01*
X6080947Y1672493D01*
X6201851Y1767997D02*
G01*
X6188389Y1763425D01*
X6179245Y1749709D01*
X6174673Y1727103D01*
X6174673Y1713387D01*
X6179245Y1690781D01*
X6188389Y1677065D01*
X6201851Y1672493D01*
X6210995Y1672493D01*
X6224711Y1677065D01*
X6233855Y1690781D01*
X6238427Y1713387D01*
X6238427Y1727103D01*
X6233855Y1749709D01*
X6224711Y1763425D01*
X6210995Y1767997D01*
X6201851Y1767997D01*
X6272971Y1745137D02*
G01*
X6272971Y1749709D01*
X6277289Y1758853D01*
X6281861Y1763425D01*
X6291005Y1767997D01*
X6309293Y1767997D01*
X6318183Y1763425D01*
X6322755Y1758853D01*
X6327327Y1749709D01*
X6327327Y1740565D01*
X6322755Y1731675D01*
X6313865Y1717959D01*
X6268399Y1672493D01*
X6331899Y1672493D01*
X6080947Y1501297D02*
G01*
X6080947Y1405793D01*
X6080947Y1501297D02*
G01*
X6112951Y1501297D01*
X6126413Y1496725D01*
X6135557Y1487581D01*
X6140129Y1478437D01*
X6144701Y1464975D01*
X6144701Y1442115D01*
X6140129Y1428653D01*
X6135557Y1419509D01*
X6126413Y1410365D01*
X6112951Y1405793D01*
X6080947Y1405793D01*
X6174673Y1483009D02*
G01*
X6183817Y1487581D01*
X6197279Y1501297D01*
X6197279Y1405793D01*
X6281861Y1501297D02*
G01*
X6236395Y1501297D01*
X6231823Y1460403D01*
X6236395Y1464975D01*
X6250111Y1469547D01*
X6263827Y1469547D01*
X6277289Y1464975D01*
X6286433Y1455831D01*
X6291005Y1442115D01*
X6291005Y1432971D01*
X6286433Y1419509D01*
X6277289Y1410365D01*
X6263827Y1405793D01*
X6250111Y1405793D01*
X6236395Y1410365D01*
X6231823Y1414937D01*
X6227505Y1424081D01*
X6080947Y3088797D02*
G01*
X6080947Y2993293D01*
X6080947Y3088797D02*
G01*
X6112951Y3088797D01*
X6126413Y3084225D01*
X6135557Y3075081D01*
X6140129Y3065937D01*
X6144701Y3052475D01*
X6144701Y3029615D01*
X6140129Y3016153D01*
X6135557Y3007009D01*
X6126413Y2997865D01*
X6112951Y2993293D01*
X6080947Y2993293D01*
X6174673Y3070509D02*
G01*
X6183817Y3075081D01*
X6197279Y3088797D01*
X6197279Y2993293D01*
X6250111Y3088797D02*
G01*
X6236395Y3084225D01*
X6231823Y3075081D01*
X6231823Y3065937D01*
X6236395Y3057047D01*
X6245539Y3052475D01*
X6263827Y3047903D01*
X6277289Y3043331D01*
X6286433Y3034187D01*
X6291005Y3025043D01*
X6291005Y3011581D01*
X6286433Y3002437D01*
X6281861Y2997865D01*
X6268399Y2993293D01*
X6250111Y2993293D01*
X6236395Y2997865D01*
X6231823Y3002437D01*
X6227505Y3011581D01*
X6227505Y3025043D01*
X6231823Y3034187D01*
X6240967Y3043331D01*
X6254683Y3047903D01*
X6272971Y3052475D01*
X6281861Y3057047D01*
X6286433Y3065937D01*
X6286433Y3075081D01*
X6281861Y3084225D01*
X6268399Y3088797D01*
X6250111Y3088797D01*
X6080947Y3355497D02*
G01*
X6080947Y3259993D01*
X6080947Y3355497D02*
G01*
X6112951Y3355497D01*
X6126413Y3350925D01*
X6135557Y3341781D01*
X6140129Y3332637D01*
X6144701Y3319175D01*
X6144701Y3296315D01*
X6140129Y3282853D01*
X6135557Y3273709D01*
X6126413Y3264565D01*
X6112951Y3259993D01*
X6080947Y3259993D01*
X6174673Y3337209D02*
G01*
X6183817Y3341781D01*
X6197279Y3355497D01*
X6197279Y3259993D01*
X6286433Y3323747D02*
G01*
X6281861Y3310031D01*
X6272971Y3300887D01*
X6259255Y3296315D01*
X6254683Y3296315D01*
X6240967Y3300887D01*
X6231823Y3310031D01*
X6227505Y3323747D01*
X6227505Y3328065D01*
X6231823Y3341781D01*
X6240967Y3350925D01*
X6254683Y3355497D01*
X6259255Y3355497D01*
X6272971Y3350925D01*
X6281861Y3341781D01*
X6286433Y3323747D01*
X6286433Y3300887D01*
X6281861Y3278281D01*
X6272971Y3264565D01*
X6259255Y3259993D01*
X6250111Y3259993D01*
X6236395Y3264565D01*
X6231823Y3273709D01*
X6080947Y3622197D02*
G01*
X6080947Y3526693D01*
X6080947Y3622197D02*
G01*
X6112951Y3622197D01*
X6126413Y3617625D01*
X6135557Y3608481D01*
X6140129Y3599337D01*
X6144701Y3585875D01*
X6144701Y3563015D01*
X6140129Y3549553D01*
X6135557Y3540409D01*
X6126413Y3531265D01*
X6112951Y3526693D01*
X6080947Y3526693D01*
X6179245Y3599337D02*
G01*
X6179245Y3603909D01*
X6183817Y3613053D01*
X6188389Y3617625D01*
X6197279Y3622197D01*
X6215567Y3622197D01*
X6224711Y3617625D01*
X6229283Y3613053D01*
X6233855Y3603909D01*
X6233855Y3594765D01*
X6229283Y3585875D01*
X6220139Y3572159D01*
X6174673Y3526693D01*
X6238427Y3526693D01*
X6268399Y3603909D02*
G01*
X6277289Y3608481D01*
X6291005Y3622197D01*
X6291005Y3526693D01*
X6080947Y3888897D02*
G01*
X6080947Y3793393D01*
X6080947Y3888897D02*
G01*
X6121841Y3888897D01*
X6135557Y3884325D01*
X6140129Y3879753D01*
X6144701Y3870609D01*
X6144701Y3861465D01*
X6140129Y3852575D01*
X6135557Y3848003D01*
X6121841Y3843431D01*
X6080947Y3843431D01*
X6112951Y3843431D02*
G01*
X6144701Y3793393D01*
X6174673Y3888897D02*
G01*
X6238427Y3793393D01*
X6238427Y3888897D02*
G01*
X6174673Y3793393D01*
X6295577Y3888897D02*
G01*
X6281861Y3884325D01*
X6272971Y3870609D01*
X6268399Y3848003D01*
X6268399Y3834287D01*
X6272971Y3811681D01*
X6281861Y3797965D01*
X6295577Y3793393D01*
X6304721Y3793393D01*
X6318183Y3797965D01*
X6327327Y3811681D01*
X6331899Y3834287D01*
X6331899Y3848003D01*
X6327327Y3870609D01*
X6318183Y3884325D01*
X6304721Y3888897D01*
X6295577Y3888897D01*
X6112951Y4168297D02*
G01*
X6112951Y4072793D01*
X6080947Y4168297D02*
G01*
X6144701Y4168297D01*
X6174673Y4168297D02*
G01*
X6238427Y4072793D01*
X6238427Y4168297D02*
G01*
X6174673Y4072793D01*
X6295577Y4168297D02*
G01*
X6281861Y4163725D01*
X6272971Y4150009D01*
X6268399Y4127403D01*
X6268399Y4113687D01*
X6272971Y4091081D01*
X6281861Y4077365D01*
X6295577Y4072793D01*
X6304721Y4072793D01*
X6318183Y4077365D01*
X6327327Y4091081D01*
X6331899Y4113687D01*
X6331899Y4127403D01*
X6327327Y4150009D01*
X6318183Y4163725D01*
X6304721Y4168297D01*
X6295577Y4168297D01*
X6080947Y4422297D02*
G01*
X6080947Y4326793D01*
X6080947Y4422297D02*
G01*
X6112951Y4422297D01*
X6126413Y4417725D01*
X6135557Y4408581D01*
X6140129Y4399437D01*
X6144701Y4385975D01*
X6144701Y4363115D01*
X6140129Y4349653D01*
X6135557Y4340509D01*
X6126413Y4331365D01*
X6112951Y4326793D01*
X6080947Y4326793D01*
X6179245Y4399437D02*
G01*
X6179245Y4404009D01*
X6183817Y4413153D01*
X6188389Y4417725D01*
X6197279Y4422297D01*
X6215567Y4422297D01*
X6224711Y4417725D01*
X6229283Y4413153D01*
X6233855Y4404009D01*
X6233855Y4394865D01*
X6229283Y4385975D01*
X6220139Y4372259D01*
X6174673Y4326793D01*
X6238427Y4326793D01*
X6272971Y4399437D02*
G01*
X6272971Y4404009D01*
X6277289Y4413153D01*
X6281861Y4417725D01*
X6291005Y4422297D01*
X6309293Y4422297D01*
X6318183Y4417725D01*
X6322755Y4413153D01*
X6327327Y4404009D01*
X6327327Y4394865D01*
X6322755Y4385975D01*
X6313865Y4372259D01*
X6268399Y4326793D01*
X6331899Y4326793D01*
X6080947Y4688997D02*
G01*
X6080947Y4593493D01*
X6080947Y4688997D02*
G01*
X6112951Y4688997D01*
X6126413Y4684425D01*
X6135557Y4675281D01*
X6140129Y4666137D01*
X6144701Y4652675D01*
X6144701Y4629815D01*
X6140129Y4616353D01*
X6135557Y4607209D01*
X6126413Y4598065D01*
X6112951Y4593493D01*
X6080947Y4593493D01*
X6179245Y4666137D02*
G01*
X6179245Y4670709D01*
X6183817Y4679853D01*
X6188389Y4684425D01*
X6197279Y4688997D01*
X6215567Y4688997D01*
X6224711Y4684425D01*
X6229283Y4679853D01*
X6233855Y4670709D01*
X6233855Y4661565D01*
X6229283Y4652675D01*
X6220139Y4638959D01*
X6174673Y4593493D01*
X6238427Y4593493D01*
X6277289Y4688997D02*
G01*
X6327327Y4688997D01*
X6300149Y4652675D01*
X6313865Y4652675D01*
X6322755Y4648103D01*
X6327327Y4643531D01*
X6331899Y4629815D01*
X6331899Y4620671D01*
X6327327Y4607209D01*
X6318183Y4598065D01*
X6304721Y4593493D01*
X6291005Y4593493D01*
X6277289Y4598065D01*
X6272971Y4602637D01*
X6268399Y4611781D01*
X6149273Y1211737D02*
G01*
X6144701Y1220881D01*
X6135557Y1230025D01*
X6126413Y1234597D01*
X6108379Y1234597D01*
X6099235Y1230025D01*
X6090091Y1220881D01*
X6085519Y1211737D01*
X6080947Y1198275D01*
X6080947Y1175415D01*
X6085519Y1161953D01*
X6090091Y1152809D01*
X6099235Y1143665D01*
X6108379Y1139093D01*
X6126413Y1139093D01*
X6135557Y1143665D01*
X6144701Y1152809D01*
X6149273Y1161953D01*
X6149273Y1175415D01*
X6126413Y1175415D02*
G01*
X6149273Y1175415D01*
X6179245Y1234597D02*
G01*
X6179245Y1139093D01*
X6179245Y1234597D02*
G01*
X6242745Y1139093D01*
X6242745Y1234597D02*
G01*
X6242745Y1139093D01*
X6272971Y1234597D02*
G01*
X6272971Y1139093D01*
X6272971Y1234597D02*
G01*
X6304721Y1234597D01*
X6318183Y1230025D01*
X6327327Y1220881D01*
X6331899Y1211737D01*
X6336471Y1198275D01*
X6336471Y1175415D01*
X6331899Y1161953D01*
X6327327Y1152809D01*
X6318183Y1143665D01*
X6304721Y1139093D01*
X6272971Y1139093D01*
X6090091Y952687D02*
G01*
X6140129Y952687D01*
X6112951Y916365D01*
X6126413Y916365D01*
X6135557Y911793D01*
X6140129Y907221D01*
X6144701Y893505D01*
X6144701Y884361D01*
X6140129Y870899D01*
X6130985Y861755D01*
X6117523Y857183D01*
X6103807Y857183D01*
X6090091Y861755D01*
X6085519Y866327D01*
X6080947Y875471D01*
X6174673Y952687D02*
G01*
X6210995Y857183D01*
X6247317Y952687D02*
G01*
X6210995Y857183D01*
X6286433Y952687D02*
G01*
X6336471Y952687D01*
X6309293Y916365D01*
X6322755Y916365D01*
X6331899Y911793D01*
X6336471Y907221D01*
X6341043Y893505D01*
X6341043Y884361D01*
X6336471Y870899D01*
X6327327Y861755D01*
X6313865Y857183D01*
X6300149Y857183D01*
X6286433Y861755D01*
X6281861Y866327D01*
X6277289Y875471D01*
X4048950Y952687D02*
G01*
X4085526Y857183D01*
X4121848Y952687D02*
G01*
X4085526Y857183D01*
X4151820Y952687D02*
G01*
X4151820Y857183D01*
X4181792Y952687D02*
G01*
X4181792Y857183D01*
X4181792Y952687D02*
G01*
X4245292Y857183D01*
X4245292Y952687D02*
G01*
X4245292Y857183D01*
X4117273Y1211737D02*
G01*
X4112701Y1220881D01*
X4103557Y1230025D01*
X4094413Y1234597D01*
X4076379Y1234597D01*
X4067235Y1230025D01*
X4058091Y1220881D01*
X4053519Y1211737D01*
X4048947Y1198275D01*
X4048947Y1175415D01*
X4053519Y1161953D01*
X4058091Y1152809D01*
X4067235Y1143665D01*
X4076379Y1139093D01*
X4094413Y1139093D01*
X4103557Y1143665D01*
X4112701Y1152809D01*
X4117273Y1161953D01*
X4117273Y1175415D01*
X4094413Y1175415D02*
G01*
X4117273Y1175415D01*
X4147245Y1234597D02*
G01*
X4147245Y1139093D01*
X4147245Y1234597D02*
G01*
X4210745Y1139093D01*
X4210745Y1234597D02*
G01*
X4210745Y1139093D01*
X4240971Y1234597D02*
G01*
X4240971Y1139093D01*
X4240971Y1234597D02*
G01*
X4272721Y1234597D01*
X4286183Y1230025D01*
X4295327Y1220881D01*
X4299899Y1211737D01*
X4304471Y1198275D01*
X4304471Y1175415D01*
X4299899Y1161953D01*
X4295327Y1152809D01*
X4286183Y1143665D01*
X4272721Y1139093D01*
X4240971Y1139093D01*
D10*
X2907284Y6121400D02*
G01*
X2985261Y6121400D01*
X3000756Y6126479D01*
X3011170Y6136894D01*
X3016250Y6152642D01*
X3016250Y6163055D01*
X3011170Y6178550D01*
X3000756Y6188963D01*
X2985261Y6194044D01*
X2907284Y6194044D01*
X2907284Y6290818D02*
G01*
X2907284Y6238747D01*
X2954020Y6233668D01*
X2948940Y6238747D01*
X2943606Y6254495D01*
X2943606Y6269989D01*
X2948940Y6285484D01*
X2959100Y6295897D01*
X2974847Y6301231D01*
X2985261Y6301231D01*
X3000756Y6295897D01*
X3011170Y6285484D01*
X3016250Y6269989D01*
X3016250Y6254495D01*
X3011170Y6238747D01*
X3006090Y6233668D01*
X2995675Y6228334D01*
D13*
X3911600Y6729729D02*
G01*
X3911600Y6851142D01*
X3911600Y6729729D02*
G01*
X3865372Y6851142D01*
X3819143Y6729729D02*
G01*
X3865372Y6851142D01*
X3819143Y6729729D02*
G01*
X3819143Y6851142D01*
X3781043Y6729729D02*
G01*
X3781043Y6851142D01*
X3781043Y6729729D02*
G01*
X3729227Y6729729D01*
X3711956Y6735571D01*
X3706113Y6741413D01*
X3700272Y6752844D01*
X3700272Y6770370D01*
X3706113Y6781800D01*
X3711956Y6787642D01*
X3729227Y6793229D01*
X3781043Y6793229D01*
X3662172Y6729729D02*
G01*
X3662172Y6816344D01*
X3656329Y6833870D01*
X3644900Y6845300D01*
X3627627Y6851142D01*
X3615943Y6851142D01*
X3598672Y6845300D01*
X3587241Y6833870D01*
X3581400Y6816344D01*
X3581400Y6729729D01*
X3473958Y6747255D02*
G01*
X3479800Y6735571D01*
X3497072Y6729729D01*
X3508756Y6729729D01*
X3526027Y6735571D01*
X3537458Y6752844D01*
X3543300Y6781800D01*
X3543300Y6810755D01*
X3537458Y6833870D01*
X3526027Y6845300D01*
X3508756Y6851142D01*
X3502913Y6851142D01*
X3485641Y6845300D01*
X3473958Y6833870D01*
X3468370Y6816344D01*
X3468370Y6810755D01*
X3473958Y6793229D01*
X3485641Y6781800D01*
X3502913Y6775958D01*
X3508756Y6775958D01*
X3526027Y6781800D01*
X3537458Y6793229D01*
X3543300Y6810755D01*
X3395472Y6729729D02*
G01*
X3412743Y6735571D01*
X3424427Y6752844D01*
X3430270Y6781800D01*
X3430270Y6799071D01*
X3424427Y6828028D01*
X3412743Y6845300D01*
X3395472Y6851142D01*
X3384041Y6851142D01*
X3366770Y6845300D01*
X3355086Y6828028D01*
X3349243Y6799071D01*
X3349243Y6781800D01*
X3355086Y6752844D01*
X3366770Y6735571D01*
X3384041Y6729729D01*
X3395472Y6729729D01*
X3242056Y6729729D02*
G01*
X3299713Y6729729D01*
X3305556Y6781800D01*
X3299713Y6775958D01*
X3282441Y6770370D01*
X3265170Y6770370D01*
X3247643Y6775958D01*
X3236213Y6787642D01*
X3230372Y6804913D01*
X3230372Y6816344D01*
X3236213Y6833870D01*
X3247643Y6845300D01*
X3265170Y6851142D01*
X3282441Y6851142D01*
X3299713Y6845300D01*
X3305556Y6839458D01*
X3311143Y6828028D01*
X3157727Y6729729D02*
G01*
X3175000Y6735571D01*
X3186429Y6752844D01*
X3192272Y6781800D01*
X3192272Y6799071D01*
X3186429Y6828028D01*
X3175000Y6845300D01*
X3157727Y6851142D01*
X3146043Y6851142D01*
X3128772Y6845300D01*
X3117341Y6828028D01*
X3111500Y6799071D01*
X3111500Y6781800D01*
X3117341Y6752844D01*
X3128772Y6735571D01*
X3146043Y6729729D01*
X3157727Y6729729D01*
X3645154Y5703570D02*
G01*
X3636009Y5694171D01*
X3631184Y5680455D01*
X3631184Y5661913D01*
X3636009Y5647944D01*
X3645154Y5638800D01*
X3654297Y5638800D01*
X3663695Y5643371D01*
X3668268Y5647944D01*
X3672840Y5657342D01*
X3681984Y5685028D01*
X3686809Y5694171D01*
X3691381Y5698744D01*
X3700525Y5703570D01*
X3714495Y5703570D01*
X3723640Y5694171D01*
X3728211Y5680455D01*
X3728211Y5661913D01*
X3723640Y5647944D01*
X3714495Y5638800D01*
X3654297Y5803137D02*
G01*
X3645154Y5798565D01*
X3636009Y5789421D01*
X3631184Y5780023D01*
X3631184Y5761736D01*
X3636009Y5752337D01*
X3645154Y5743194D01*
X3654297Y5738621D01*
X3668268Y5734050D01*
X3691381Y5734050D01*
X3705097Y5738621D01*
X3714495Y5743194D01*
X3723640Y5752337D01*
X3728211Y5761736D01*
X3728211Y5780023D01*
X3723640Y5789421D01*
X3714495Y5798565D01*
X3705097Y5803137D01*
X3631184Y5833618D02*
G01*
X3728211Y5833618D01*
X3728211Y5833618D02*
G01*
X3728211Y5888989D01*
X3123184Y5638800D02*
G01*
X3220211Y5675629D01*
X3123184Y5712713D02*
G01*
X3220211Y5675629D01*
X3146297Y5812536D02*
G01*
X3137154Y5807710D01*
X3128009Y5798565D01*
X3123184Y5789421D01*
X3123184Y5770879D01*
X3128009Y5761736D01*
X3137154Y5752337D01*
X3146297Y5747765D01*
X3160268Y5743194D01*
X3183381Y5743194D01*
X3197097Y5747765D01*
X3206495Y5752337D01*
X3215640Y5761736D01*
X3220211Y5770879D01*
X3220211Y5789421D01*
X3215640Y5798565D01*
X3206495Y5807710D01*
X3197097Y5812536D01*
X3146297Y5912104D02*
G01*
X3137154Y5907531D01*
X3128009Y5898387D01*
X3123184Y5888989D01*
X3123184Y5870702D01*
X3128009Y5861304D01*
X3137154Y5852160D01*
X3146297Y5847587D01*
X3160268Y5843015D01*
X3183381Y5843015D01*
X3197097Y5847587D01*
X3206495Y5852160D01*
X3215640Y5861304D01*
X3220211Y5870702D01*
X3220211Y5888989D01*
X3215640Y5898387D01*
X3206495Y5907531D01*
X3197097Y5912104D01*
X3400297Y5708142D02*
G01*
X3391154Y5703570D01*
X3382009Y5694171D01*
X3377184Y5685028D01*
X3377184Y5666486D01*
X3382009Y5657342D01*
X3391154Y5647944D01*
X3400297Y5643371D01*
X3414268Y5638800D01*
X3437381Y5638800D01*
X3451097Y5643371D01*
X3460495Y5647944D01*
X3469640Y5657342D01*
X3474211Y5666486D01*
X3474211Y5685028D01*
X3469640Y5694171D01*
X3460495Y5703570D01*
X3451097Y5708142D01*
X3437381Y5708142D01*
X3437381Y5685028D02*
G01*
X3437381Y5708142D01*
X3377184Y5738621D02*
G01*
X3474211Y5738621D01*
X3377184Y5738621D02*
G01*
X3474211Y5803137D01*
X3377184Y5803137D02*
G01*
X3474211Y5803137D01*
X3377184Y5833618D02*
G01*
X3474211Y5833618D01*
X3377184Y5833618D02*
G01*
X3377184Y5866129D01*
X3382009Y5879845D01*
X3391154Y5888989D01*
X3400297Y5893815D01*
X3414268Y5898387D01*
X3437381Y5898387D01*
X3451097Y5893815D01*
X3460495Y5888989D01*
X3469640Y5879845D01*
X3474211Y5866129D01*
X3474211Y5833618D01*
X3899154Y5703570D02*
G01*
X3890009Y5694171D01*
X3885184Y5680455D01*
X3885184Y5661913D01*
X3890009Y5647944D01*
X3899154Y5638800D01*
X3908297Y5638800D01*
X3917695Y5643371D01*
X3922268Y5647944D01*
X3926840Y5657342D01*
X3935984Y5685028D01*
X3940809Y5694171D01*
X3945381Y5698744D01*
X3954525Y5703570D01*
X3968495Y5703570D01*
X3977640Y5694171D01*
X3982211Y5680455D01*
X3982211Y5661913D01*
X3977640Y5647944D01*
X3968495Y5638800D01*
X3885184Y5734050D02*
G01*
X3982211Y5734050D01*
X3885184Y5734050D02*
G01*
X3885184Y5766307D01*
X3890009Y5780023D01*
X3899154Y5789421D01*
X3908297Y5793994D01*
X3922268Y5798565D01*
X3945381Y5798565D01*
X3959097Y5793994D01*
X3968495Y5789421D01*
X3977640Y5780023D01*
X3982211Y5766307D01*
X3982211Y5734050D01*
X3885184Y5866129D02*
G01*
X3982211Y5829045D01*
X3885184Y5866129D02*
G01*
X3982211Y5902960D01*
X3949954Y5843015D02*
G01*
X3949954Y5888989D01*
X4139184Y5638800D02*
G01*
X4236211Y5703570D01*
X4139184Y5703570D02*
G01*
X4236211Y5638800D01*
X4139184Y5734050D02*
G01*
X4236211Y5734050D01*
X4139184Y5734050D02*
G01*
X4139184Y5766307D01*
X4144009Y5780023D01*
X4153154Y5789421D01*
X4162297Y5793994D01*
X4176268Y5798565D01*
X4199381Y5798565D01*
X4213097Y5793994D01*
X4222495Y5789421D01*
X4231640Y5780023D01*
X4236211Y5766307D01*
X4236211Y5734050D01*
X4139184Y5866129D02*
G01*
X4236211Y5829045D01*
X4139184Y5866129D02*
G01*
X4236211Y5902960D01*
X4203954Y5843015D02*
G01*
X4203954Y5888989D01*
X4393184Y5638800D02*
G01*
X4490211Y5703570D01*
X4393184Y5703570D02*
G01*
X4490211Y5638800D01*
X4416297Y5803137D02*
G01*
X4407154Y5798565D01*
X4398009Y5789421D01*
X4393184Y5780023D01*
X4393184Y5761736D01*
X4398009Y5752337D01*
X4407154Y5743194D01*
X4416297Y5738621D01*
X4430268Y5734050D01*
X4453381Y5734050D01*
X4467097Y5738621D01*
X4476495Y5743194D01*
X4485640Y5752337D01*
X4490211Y5761736D01*
X4490211Y5780023D01*
X4485640Y5789421D01*
X4476495Y5798565D01*
X4467097Y5803137D01*
X4393184Y5833618D02*
G01*
X4490211Y5833618D01*
X4490211Y5833618D02*
G01*
X4490211Y5888989D01*
X4647184Y5675629D02*
G01*
X4744211Y5638800D01*
X4647184Y5675629D02*
G01*
X4744211Y5712713D01*
X4711954Y5652770D02*
G01*
X4711954Y5698744D01*
X4647184Y5743194D02*
G01*
X4744211Y5743194D01*
X4647184Y5743194D02*
G01*
X4647184Y5775452D01*
X4652009Y5789421D01*
X4661154Y5798565D01*
X4670297Y5803137D01*
X4684268Y5807710D01*
X4707381Y5807710D01*
X4721097Y5803137D01*
X4730495Y5798565D01*
X4739640Y5789421D01*
X4744211Y5775452D01*
X4744211Y5743194D01*
X4647184Y5866129D02*
G01*
X4652009Y5856731D01*
X4661154Y5847587D01*
X4670297Y5843015D01*
X4684268Y5838189D01*
X4707381Y5838189D01*
X4721097Y5843015D01*
X4730495Y5847587D01*
X4739640Y5856731D01*
X4744211Y5866129D01*
X4744211Y5884418D01*
X4739640Y5893815D01*
X4730495Y5902960D01*
X4721097Y5907531D01*
X4707381Y5912104D01*
X4684268Y5912104D01*
X4670297Y5907531D01*
X4661154Y5902960D01*
X4652009Y5893815D01*
X4647184Y5884418D01*
X4647184Y5866129D01*
X4901184Y5638800D02*
G01*
X4998211Y5638800D01*
X4901184Y5669279D02*
G01*
X4998211Y5669279D01*
X4901184Y5669279D02*
G01*
X4998211Y5734050D01*
X4901184Y5734050D02*
G01*
X4998211Y5734050D01*
X4901184Y5796787D02*
G01*
X4998211Y5796787D01*
X4901184Y5764529D02*
G01*
X4901184Y5829045D01*
D11*
X4705350Y6578600D02*
G01*
X4867402Y6686804D01*
X4705350Y6686804D02*
G01*
X4867402Y6578600D01*
X3943350Y6350000D02*
G01*
X4020565Y6411721D01*
X4105402Y6411721D01*
X3943350Y6473697D02*
G01*
X4020565Y6411721D01*
D10*
X3996309Y6501587D02*
G01*
X3918331Y6501587D01*
X3902836Y6496507D01*
X3892422Y6486093D01*
X3887343Y6470345D01*
X3887343Y6459931D01*
X3892422Y6444437D01*
X3902836Y6434023D01*
X3918331Y6428943D01*
X3996309Y6428943D01*
X3980815Y6332169D02*
G01*
X3991229Y6337503D01*
X3996309Y6352997D01*
X3996309Y6363411D01*
X3991229Y6378905D01*
X3975481Y6389319D01*
X3949572Y6394653D01*
X3923665Y6394653D01*
X3902836Y6389319D01*
X3892422Y6378905D01*
X3887343Y6363411D01*
X3887343Y6358077D01*
X3892422Y6342583D01*
X3902836Y6332169D01*
X3918331Y6327089D01*
X3923665Y6327089D01*
X3939159Y6332169D01*
X3949572Y6342583D01*
X3954652Y6358077D01*
X3954652Y6363411D01*
X3949572Y6378905D01*
X3939159Y6389319D01*
X3923665Y6394653D01*
X4996306Y6501587D02*
G01*
X4918329Y6501587D01*
X4902834Y6496507D01*
X4892420Y6486093D01*
X4887340Y6470345D01*
X4887340Y6459931D01*
X4892420Y6444437D01*
X4902834Y6434023D01*
X4918329Y6428943D01*
X4996306Y6428943D01*
X4996306Y6321755D02*
G01*
X4887340Y6373825D01*
X4996306Y6394653D02*
G01*
X4996306Y6321755D01*
X6922515Y6350000D02*
G01*
X6844538Y6350000D01*
X6829043Y6344920D01*
X6818629Y6334505D01*
X6813550Y6318757D01*
X6813550Y6308344D01*
X6818629Y6292850D01*
X6829043Y6282436D01*
X6844538Y6277355D01*
X6922515Y6277355D01*
X6922515Y6216904D02*
G01*
X6917436Y6232652D01*
X6907022Y6237731D01*
X6896608Y6237731D01*
X6886193Y6232652D01*
X6880859Y6222237D01*
X6875779Y6201410D01*
X6870700Y6185915D01*
X6860286Y6175502D01*
X6849872Y6170168D01*
X6834124Y6170168D01*
X6823709Y6175502D01*
X6818629Y6180581D01*
X6813550Y6196329D01*
X6813550Y6216904D01*
X6818629Y6232652D01*
X6823709Y6237731D01*
X6834124Y6243065D01*
X6849872Y6243065D01*
X6860286Y6237731D01*
X6870700Y6227318D01*
X6875779Y6211823D01*
X6880859Y6190995D01*
X6886193Y6180581D01*
X6896608Y6175502D01*
X6907022Y6175502D01*
X6917436Y6180581D01*
X6922515Y6196329D01*
X6922515Y6216904D01*
X7011415Y2743200D02*
G01*
X6933438Y2743200D01*
X6917943Y2738120D01*
X6907529Y2727705D01*
X6902450Y2711957D01*
X6902450Y2701544D01*
X6907529Y2686050D01*
X6917943Y2675636D01*
X6933438Y2670555D01*
X7011415Y2670555D01*
X6975093Y2568702D02*
G01*
X6959600Y2573781D01*
X6949186Y2584195D01*
X6943852Y2599689D01*
X6943852Y2605023D01*
X6949186Y2620518D01*
X6959600Y2630931D01*
X6975093Y2636265D01*
X6980174Y2636265D01*
X6995922Y2630931D01*
X7006336Y2620518D01*
X7011415Y2605023D01*
X7011415Y2599689D01*
X7006336Y2584195D01*
X6995922Y2573781D01*
X6975093Y2568702D01*
X6949186Y2568702D01*
X6923024Y2573781D01*
X6907529Y2584195D01*
X6902450Y2599689D01*
X6902450Y2610104D01*
X6907529Y2625852D01*
X6917943Y2630931D01*
X2566415Y5321300D02*
G01*
X2488438Y5321300D01*
X2472943Y5316220D01*
X2462529Y5305805D01*
X2457450Y5290057D01*
X2457450Y5279644D01*
X2462529Y5264150D01*
X2472943Y5253736D01*
X2488438Y5248655D01*
X2566415Y5248655D01*
X2545588Y5214365D02*
G01*
X2550922Y5203952D01*
X2566415Y5188204D01*
X2457450Y5188204D01*
X2566415Y5122926D02*
G01*
X2561336Y5138420D01*
X2545588Y5148834D01*
X2519679Y5153913D01*
X2504186Y5153913D01*
X2478024Y5148834D01*
X2462529Y5138420D01*
X2457450Y5122926D01*
X2457450Y5112512D01*
X2462529Y5096763D01*
X2478024Y5086350D01*
X2504186Y5081270D01*
X2519679Y5081270D01*
X2545588Y5086350D01*
X2561336Y5096763D01*
X2566415Y5112512D01*
X2566415Y5122926D01*
X1309115Y6865048D02*
G01*
X1304036Y6875208D01*
X1293621Y6885622D01*
X1283207Y6890956D01*
X1267460Y6896036D01*
X1241552Y6896036D01*
X1226057Y6890956D01*
X1215644Y6885622D01*
X1205229Y6875208D01*
X1200150Y6865048D01*
X1200150Y6844220D01*
X1205229Y6833806D01*
X1215644Y6823392D01*
X1226057Y6818058D01*
X1241552Y6812978D01*
X1267460Y6812978D01*
X1283207Y6818058D01*
X1293621Y6823392D01*
X1304036Y6833806D01*
X1309115Y6844220D01*
X1309115Y6865048D01*
X1309115Y6778688D02*
G01*
X1200150Y6778688D01*
X1309115Y6778688D02*
G01*
X1309115Y6711124D01*
X1257300Y6778688D02*
G01*
X1257300Y6737032D01*
X1309115Y6676834D02*
G01*
X1200150Y6676834D01*
X1309115Y6676834D02*
G01*
X1309115Y6609270D01*
X1257300Y6676834D02*
G01*
X1257300Y6635178D01*
X1293621Y6491922D02*
G01*
X1246886Y6574980D01*
X1200150Y6491922D01*
X1246886Y6457632D02*
G01*
X1246886Y6364160D01*
X1293621Y6329870D02*
G01*
X1246886Y6246558D01*
X1200150Y6329870D01*
X1309115Y6181280D02*
G01*
X1304036Y6191694D01*
X1293621Y6202108D01*
X1283207Y6207188D01*
X1267460Y6212268D01*
X1241552Y6212268D01*
X1226057Y6207188D01*
X1215644Y6202108D01*
X1205229Y6191694D01*
X1200150Y6181280D01*
X1200150Y6160452D01*
X1205229Y6150038D01*
X1215644Y6139624D01*
X1226057Y6134544D01*
X1241552Y6129210D01*
X1267460Y6129210D01*
X1283207Y6134544D01*
X1293621Y6139624D01*
X1304036Y6150038D01*
X1309115Y6160452D01*
X1309115Y6181280D01*
X1309115Y6094920D02*
G01*
X1200150Y6094920D01*
X1309115Y6094920D02*
G01*
X1200150Y6022276D01*
X1309115Y6022276D02*
G01*
X1200150Y6022276D01*
X2340800Y5980684D02*
G01*
X2340800Y6058662D01*
X2335720Y6074155D01*
X2325306Y6084570D01*
X2309558Y6089650D01*
X2299144Y6089650D01*
X2283650Y6084570D01*
X2273236Y6074155D01*
X2268156Y6058662D01*
X2268156Y5980684D01*
X2233866Y6001512D02*
G01*
X2223452Y5996178D01*
X2207704Y5980684D01*
X2207704Y6089650D01*
X2168334Y6006592D02*
G01*
X2168334Y6001512D01*
X2163000Y5991097D01*
X2157920Y5985763D01*
X2147506Y5980684D01*
X2126678Y5980684D01*
X2116264Y5985763D01*
X2111184Y5991097D01*
X2105850Y6001512D01*
X2105850Y6011926D01*
X2111184Y6022339D01*
X2121598Y6037834D01*
X2173414Y6089650D01*
X2100770Y6089650D01*
G36*
X2728518Y4016959D02*
G01*
X2728620Y3571392D01*
X2739948Y3583330D01*
X2750667Y3595878D01*
X2760675Y3608984D01*
X2770022Y3622548D01*
X2778658Y3636619D01*
X2786532Y3651148D01*
X2793644Y3666032D01*
X2799943Y3681272D01*
X2805430Y3696817D01*
X2810103Y3712616D01*
X2813964Y3728618D01*
X2816961Y3744874D01*
X2818180Y3753002D01*
X2819908Y3769410D01*
X2820771Y3785870D01*
X2820771Y3802379D01*
X2819908Y3818839D01*
X2818180Y3835247D01*
X2815590Y3851554D01*
X2812135Y3867658D01*
X2807868Y3883609D01*
X2802788Y3899306D01*
X2796895Y3914698D01*
X2790190Y3929735D01*
X2782671Y3944467D01*
X2774442Y3958742D01*
X2765450Y3972560D01*
X2755747Y3985920D01*
X2745384Y3998722D01*
X2734360Y4010964D01*
G37*
G36*
X2728518Y1716989D02*
G01*
X2728620Y1271422D01*
X2739948Y1283360D01*
X2750667Y1295908D01*
X2760675Y1308963D01*
X2770022Y1322578D01*
X2778658Y1336649D01*
X2786532Y1351127D01*
X2793644Y1366012D01*
X2799943Y1381252D01*
X2805430Y1396796D01*
X2810103Y1412595D01*
X2813964Y1428648D01*
X2815590Y1436725D01*
X2818180Y1453032D01*
X2819908Y1469440D01*
X2820771Y1485900D01*
X2820771Y1502410D01*
X2819908Y1518869D01*
X2818180Y1535277D01*
X2815590Y1551533D01*
X2812135Y1567688D01*
X2807868Y1583588D01*
X2802788Y1599285D01*
X2796895Y1614678D01*
X2790190Y1629765D01*
X2782671Y1644446D01*
X2774442Y1658721D01*
X2765450Y1672589D01*
X2755747Y1685899D01*
X2745384Y1698752D01*
X2734360Y1710994D01*
G37*
G36*
X5379923Y6241389D02*
G01*
X5379923Y6161379D01*
X5399887Y6161379D01*
X5399887Y6241389D01*
G37*
G36*
X5349900Y6211417D02*
G01*
X5349900Y6191402D01*
X5429910Y6191402D01*
X5429910Y6211417D01*
G37*
G36*
X5619902Y6221374D02*
G01*
X5619902Y6201410D01*
X5699912Y6201410D01*
X5699912Y6221374D01*
G37*
G36*
X5740400Y6286500D02*
G01*
X5740400Y5969000D01*
X5745734Y5974486D01*
X5754624Y5984595D01*
X5762904Y5995263D01*
X5770473Y6006388D01*
X5774029Y6012129D01*
X5780532Y6023965D01*
X5786272Y6036157D01*
X5791200Y6048705D01*
X5795365Y6061506D01*
X5798718Y6074562D01*
X5801258Y6087821D01*
X5802223Y6094476D01*
X5803493Y6107938D01*
X5803900Y6121400D01*
X5803798Y6144666D01*
X5802884Y6157010D01*
X5801156Y6169253D01*
X5798515Y6181344D01*
X5796889Y6187338D01*
X5792978Y6199073D01*
X5788202Y6210503D01*
X5785561Y6216091D01*
X5779617Y6226962D01*
X5772912Y6237376D01*
X5765495Y6247282D01*
X5757418Y6256629D01*
X5753100Y6261100D01*
G37*
D14*
X5657189Y3458692D02*
G01*
X5365089Y3458692D01*
X5091079Y3409561D02*
G01*
X4798979Y3409561D01*
X4945989Y3560292D02*
G01*
X4945989Y3268192D01*
X5312587Y5674903D02*
G01*
X5812586Y5674901D01*
X5812586Y5422900D02*
G01*
X5312587Y5422900D01*
X5812586Y5674901D02*
G01*
X5812586Y5651500D01*
X5812586Y5422900D02*
G01*
X5812586Y5448300D01*
X5312587Y5674903D02*
G01*
X5312587Y5651500D01*
X5312587Y5422900D02*
G01*
X5312587Y5448300D01*
X1287602Y3545652D02*
G01*
X1287602Y4305300D01*
X1541602Y4305300D01*
X1541602Y3289300D01*
X1287602Y3289300D01*
X1287602Y3545652D01*
X1287602Y3545652D02*
G01*
X1541602Y3545652D01*
X1287602Y1245656D02*
G01*
X1287602Y2005304D01*
X1541602Y2005304D01*
X1541602Y989304D01*
X1287602Y989304D01*
X1287602Y1245656D01*
X1287602Y1245656D02*
G01*
X1541602Y1245656D01*
X6297198Y6235700D02*
G01*
X6047198Y6235700D01*
X6297198Y5727801D02*
G01*
X6047198Y5727801D01*
X6297198Y6489700D02*
G01*
X6297198Y5727801D01*
X6047198Y6489700D02*
G01*
X6297198Y6489700D01*
X6047198Y5727700D02*
G01*
X6047198Y6489700D01*
D11*
X2870200Y5054600D02*
G01*
X2616200Y5054600D01*
X2616200Y5562600D01*
X2870200Y5562600D01*
X2870200Y5372100D01*
D15*
X2870200Y5054600D02*
G01*
X2870200Y5372100D01*
D14*
X5445503Y6921400D02*
G01*
X6365496Y6921400D01*
X6365496Y6921400D02*
G01*
X6365496Y6591399D01*
X6365496Y6591300D02*
G01*
X5445503Y6591300D01*
X5445503Y6591300D02*
G01*
X5445503Y6921301D01*
X6365496Y6591300D02*
G01*
X5445503Y6591300D01*
X5333900Y2022096D02*
G01*
X5333900Y1102103D01*
X5333900Y1102103D02*
G01*
X5003899Y1102103D01*
X5003800Y1102103D02*
G01*
X5003800Y2022096D01*
X5003800Y2022096D02*
G01*
X5333801Y2022096D01*
X5003800Y1102103D02*
G01*
X5003800Y2022096D01*
X2999993Y3299993D02*
G01*
X2499995Y3299993D01*
X2499995Y3799992D01*
X2999993Y3799992D01*
X2999993Y3299993D01*
X3265995Y2783992D02*
G01*
X3265995Y4815992D01*
X1742000Y4815992D01*
X1742000Y2783992D01*
X3265995Y2783992D01*
X2999993Y999997D02*
G01*
X2499995Y999997D01*
X2499995Y1499996D01*
X2999993Y1499996D01*
X2999993Y999997D01*
X3265995Y483996D02*
G01*
X3265995Y2515996D01*
X1742000Y2515996D01*
X1742000Y483996D01*
X3265995Y483996D01*
D16*
X3992039Y5153944D02*
G01*
X6385214Y5152204D01*
X3992039Y5153944D02*
G01*
X6385214Y5152204D01*
X3794000Y4981879D02*
G01*
X3795049Y206532D01*
X4004739Y5153944D02*
G01*
X6397914Y5152204D01*
X3806700Y4981879D02*
G01*
X3807749Y206532D01*
X4010949Y3332D02*
G01*
X6398549Y3332D01*
X6598526Y206481D02*
G01*
X6601749Y4981732D01*
X6585826Y206481D02*
G01*
X6589049Y4981732D01*
X6585826Y206481D02*
G01*
X6589049Y4981732D01*
X3794000Y4981879D02*
G01*
X3795049Y206532D01*
X3998249Y3332D02*
G01*
X6385849Y3332D01*
X6030249Y4566866D02*
G01*
X4353849Y4575332D01*
X4353849Y5057932D01*
X6030249Y5057932D01*
X4785649Y3332D02*
G01*
X4785649Y603331D01*
X5585647Y603331D01*
X5585647Y3332D01*
X4303049Y79532D02*
G01*
X4303049Y460532D01*
X4557049Y460532D01*
X4557049Y79532D01*
X4303049Y79532D01*
X6081049Y460532D02*
G01*
X6081049Y79532D01*
X5827049Y79532D01*
X5827049Y460532D01*
X6081049Y460532D01*
X3998249Y3332D02*
G01*
X6385849Y3332D01*
X6030249Y5057932D02*
G01*
X6030249Y4575332D01*
X5942063Y4494524D02*
G01*
X5942063Y2694525D01*
X4442063Y2694525D01*
X4442063Y4494524D01*
X5942063Y4494524D01*
X5700049Y4991320D02*
G01*
X5700049Y4635720D01*
X4430049Y4635720D02*
G01*
X4430049Y4991320D01*
X4684049Y4991320D01*
X4684049Y4788120D01*
X4938049Y4788120D01*
X4938049Y4991320D01*
X5192049Y4991320D01*
X5192049Y4788120D01*
X5446049Y4788120D01*
X5446049Y4991320D01*
X5954049Y4991320D01*
X5954049Y4635720D01*
D14*
X4782820Y6522720D02*
G01*
X4792979Y6522720D01*
X4848859Y6466839D01*
X4782820Y6522720D02*
G01*
X4767579Y6522720D01*
X4711700Y6466839D01*
X4782820Y6146800D02*
G01*
X4782820Y6522720D01*
X4986020Y6286500D02*
G01*
X4986020Y6353426D01*
X4982502Y6370281D02*
G01*
X4899659Y6370281D01*
X4982502Y6370281D01*
X3048000Y5334000D02*
G01*
X3048000Y6921500D01*
X5080000Y6921500D01*
X5080000Y5334000D01*
X3048000Y5334000D01*
X4152900Y6418579D02*
G01*
X4157979Y6418579D01*
X4216400Y6477000D01*
X4211320Y6477000D01*
X4152900Y6418579D01*
X4500879Y6418579D02*
G01*
X4152900Y6418579D01*
X4152900Y6418579D02*
G01*
X4160520Y6418579D01*
X4213859Y6365239D01*
X4254500Y6581139D02*
G01*
X4254500Y6532879D01*
X4254500Y6598920D01*
X4348479Y6598920D01*
D10*
X3159871Y6641226D02*
G01*
X3840114Y6641226D01*
X3840114Y6361948D01*
X3159871Y6361948D01*
X3159871Y6641226D01*
X4159869Y6641226D02*
G01*
X4840112Y6641226D01*
X4840112Y6361948D01*
X4159869Y6361948D01*
X4159869Y6641226D01*
D14*
X7014286Y6561886D02*
G01*
X6963486Y6561886D01*
X6988886Y6587286D02*
G01*
X6988886Y6536486D01*
X7014286Y2961894D02*
G01*
X6963486Y2961894D01*
X6988886Y2987294D02*
G01*
X6988886Y2936494D01*
X2362200Y5283200D02*
G01*
X2311400Y5283200D01*
X2336800Y5308600D02*
G01*
X2336800Y5257800D01*
X1604700Y6311900D02*
G01*
X1701800Y6311900D01*
X1701800Y6337300D01*
X1473200Y6345951D02*
G01*
X1473200Y6311900D01*
X1570299Y6311900D01*
X1473200Y6604000D02*
G01*
X1473200Y6337300D01*
X1701800Y6337300D01*
X1701800Y6604000D01*
X1473200Y6604000D01*
X1384300Y6013462D02*
G01*
X1384300Y6915162D01*
X1790700Y6915162D01*
X1790700Y6013462D01*
X1384300Y6013462D01*
X2862201Y6153200D02*
G01*
X1862201Y6153200D01*
X1862201Y6153200D02*
G01*
X1862201Y6923199D01*
X2862201Y6153200D02*
G01*
X2862201Y6923199D01*
X2862201Y6923199D02*
G01*
X1862201Y6923199D01*
X2862201Y6333144D02*
G01*
X1862201Y6333144D01*
X2862201Y6737659D02*
G01*
X1862201Y6737659D01*
X1854200Y6286500D02*
G01*
X1791401Y6286500D01*
X1791401Y6390561D01*
X1854200Y6390561D01*
G75*
G01*
X2815006Y3799992D02*
G02*
X2184984Y3799992I-315011J0D01*
G75*
G01*
X2184984Y3799992D02*
G02*
X2815006Y3799992I315011J0D01*
G75*
G01*
X2815006Y1499997D02*
G02*
X2184984Y1499997I-315011J0D01*
G75*
G01*
X2184984Y1499997D02*
G02*
X2815006Y1499997I315011J0D01*
D17*
G75*
G01*
X6004049Y264470D02*
G03*
X6004024Y263911I-49947J1990D01*
G75*
G01*
X4480049Y264470D02*
G03*
X4480049Y263911I-49986J-280D01*
D18*
G75*
G01*
X4724042Y2867944D02*
G03*
X4724042Y2867513I-40005J-215D01*
D16*
G75*
G01*
X3992039Y5153944D02*
G03*
X3794001Y4981880I1J-199999D01*
G75*
G01*
X3795062Y206235D02*
G03*
X3998252Y3658I199983J-2604D01*
G75*
G01*
X6385850Y3332D02*
G03*
X6585826Y206482I2J200000D01*
G75*
G01*
X6589050Y4981732D02*
G03*
X6385212Y5152205I-197822J-29437D01*
G75*
G01*
X3795062Y206235D02*
G03*
X3998252Y3658I199983J-2604D01*
G75*
G01*
X3992039Y5153944D02*
G03*
X3794001Y4981880I1J-199999D01*
G75*
G01*
X6589050Y4981732D02*
G03*
X6385212Y5152205I-197822J-29437D01*
G75*
G01*
X6385850Y3332D02*
G03*
X6585826Y206482I2J200000D01*
G75*
G01*
X6398550Y3332D02*
G03*
X6598526Y206482I2J200000D01*
G75*
G01*
X3807762Y206235D02*
G03*
X4010952Y3658I199983J-2604D01*
G75*
G01*
X6601750Y4981732D02*
G03*
X6397912Y5152205I-197822J-29437D01*
G75*
G01*
X4004739Y5153944D02*
G03*
X3806701Y4981880I1J-199999D01*
D14*
G75*
G01*
X4268887Y6241270D02*
G03*
X4271462Y6595890I-66046J177799D01*
G75*
G01*
X4627880Y6372860D02*
G03*
X4982502Y6370282I177801J66041D01*
G75*
G01*
X6798386Y6726987D02*
G03*
X6798386Y6472987I101599J-127000D01*
G75*
G01*
X7014286Y6485687D02*
G03*
X7007377Y6720802I-114301J114300D01*
G75*
G01*
X6798386Y3126994D02*
G03*
X6798386Y2872994I101599J-127000D01*
G75*
G01*
X7014286Y2885694D02*
G03*
X7007377Y3120809I-114301J114300D01*
G75*
G01*
X2146300Y5448300D02*
G03*
X2146300Y5194300I101599J-127000D01*
G75*
G01*
X2362200Y5207000D02*
G03*
X2355291Y5442115I-114301J114300D01*
G75*
G01
X5799455Y3699993D02*
G03X5799455Y3699993I-599465J0D01*
G75*
G01
X2815006Y3799992D02*
G03X2815006Y3799992I-315011J0D01*
G75*
G01
X2815006Y1499997D02*
G03X2815006Y1499997I-315011J0D01*
G75*
G01
X5799912Y6121400D02*
G03X5799912Y6121400I-250012J0D01*
G75*
G01
X6504153Y4956302D02*
G03X6504153Y4956302I-143688J0D01*
G75*
G01
X4150665Y4956302D02*
G03X4150665Y4956302I-127000J0D01*
G75*
G01
X4167353Y206502D02*
G03X4167353Y206502I-143688J0D01*
G75*
G01
X6487465Y206502D02*
G03X6487465Y206502I-127000J0D01*
G75*
G01
X4167353Y206502D02*
G03X4167353Y206502I-143688J0D01*
G75*
G01
X6487465Y206502D02*
G03X6487465Y206502I-127000J0D01*
G75*
G01
X4150665Y4956302D02*
G03X4150665Y4956302I-127000J0D01*
G75*
G01
X6504153Y4956302D02*
G03X6504153Y4956302I-143688J0D01*
G75*
G01
X6500165Y206502D02*
G03X6500165Y206502I-127000J0D01*
G75*
G01
X4180053Y206502D02*
G03X4180053Y206502I-143688J0D01*
G75*
G01
X6516853Y4956302D02*
G03X6516853Y4956302I-143688J0D01*
G75*
G01
X4163365Y4956302D02*
G03X4163365Y4956302I-127000J0D01*
M02*
