G04 Layer: BottomSolderMaskLayer*
G04 EasyEDA v6.5.50, 2025-06-12 12:21:42*
G04 5a30a698f2604c48907cf2a2958ab60a,01d3e6036b464142aa991e197958fd7d,10*
G04 Gerber Generator version 0.2*
G04 Scale: 100 percent, Rotated: No, Reflected: No *
G04 Dimensions in millimeters *
G04 leading zeros omitted , absolute positions ,4 integer and 5 decimal *
%FSLAX45Y45*%
%MOMM*%

%AMMACRO1*4,1,8,-0.8711,-0.9008,-0.9008,-0.8708,-0.9008,0.8711,-0.8711,0.9008,0.8708,0.9008,0.9008,0.8711,0.9008,-0.8708,0.8708,-0.9008,-0.8711,-0.9008,0*%
%AMMACRO2*4,1,8,-1.0211,-1.0508,-1.0508,-1.0208,-1.0508,1.0211,-1.0211,1.0508,1.0208,1.0508,1.0508,1.0211,1.0508,-1.0208,1.0208,-1.0508,-1.0211,-1.0508,0*%
%AMMACRO3*4,1,8,-0.8208,-0.8501,-0.85,-0.8207,-0.85,0.8209,-0.8208,0.8501,0.8205,0.8501,0.85,0.8209,0.85,-0.8207,0.8205,-0.8501,-0.8208,-0.8501,0*%
%AMMACRO4*4,1,8,-0.9312,-0.9906,-0.9906,-0.9309,-0.9906,0.9312,-0.9312,0.9906,0.9309,0.9906,0.9906,0.9312,0.9906,-0.9309,0.9309,-0.9906,-0.9312,-0.9906,0*%
%ADD10C,2.6000*%
%ADD11C,1.6000*%
%ADD12C,1.2000*%
%ADD13C,1.7016*%
%ADD14MACRO1*%
%ADD15C,1.8016*%
%ADD16MACRO2*%
%ADD17C,2.1016*%
%ADD18C,1.7000*%
%ADD19MACRO3*%
%ADD20C,1.9812*%
%ADD21MACRO4*%
%ADD22C,1.8796*%
%ADD23C,1.6256*%
%ADD24C,1.6240*%
%ADD25C,2.3016*%
%ADD26C,0.0180*%

%LPD*%
D10*
G01*
X5499988Y3699992D03*
G01*
X4899990Y3699992D03*
D11*
G01*
X2624988Y3799992D03*
G01*
X2375001Y3799992D03*
G01*
X2624988Y1499996D03*
G01*
X2375001Y1499996D03*
D12*
G01*
X5649899Y6121400D03*
G01*
X5449900Y6121400D03*
D13*
G01*
X5312613Y5549900D03*
G01*
X5812612Y5549900D03*
D14*
G01*
X1414614Y3416287D03*
D15*
G01*
X1414602Y3670300D03*
G01*
X1414602Y3924300D03*
G01*
X1414602Y4178300D03*
D14*
G01*
X1414614Y1116291D03*
D15*
G01*
X1414602Y1370304D03*
G01*
X1414602Y1624304D03*
G01*
X1414602Y1878304D03*
D14*
G01*
X6172212Y6362687D03*
D15*
G01*
X6172200Y6108700D03*
G01*
X6172200Y5854700D03*
D16*
G01*
X2743200Y5435600D03*
D17*
G01*
X2743200Y5181600D03*
D13*
G01*
X5245506Y6756400D03*
G01*
X6565493Y6756400D03*
G01*
X5168900Y2222093D03*
G01*
X5168900Y902106D03*
D18*
G01*
X3134995Y4688992D03*
G01*
X3134995Y4434992D03*
G01*
X3134995Y4180992D03*
G01*
X3134995Y3926992D03*
G01*
X3134995Y3672992D03*
G01*
X3134995Y3418992D03*
G01*
X3134995Y3164992D03*
G01*
X3134995Y2910992D03*
G01*
X1864995Y4688992D03*
G01*
X1864995Y4434992D03*
G01*
X1864995Y4180992D03*
G01*
X1864995Y3926992D03*
G01*
X1864995Y3672992D03*
G01*
X1864995Y3418992D03*
D19*
G01*
X1865007Y3164992D03*
D18*
G01*
X1864995Y2910992D03*
G01*
X3134995Y2388996D03*
G01*
X3134995Y2134996D03*
G01*
X3134995Y1880996D03*
G01*
X3134995Y1626996D03*
G01*
X3134995Y1372996D03*
G01*
X3134995Y1118996D03*
G01*
X3134995Y864996D03*
G01*
X3134995Y610996D03*
G01*
X1864995Y2388996D03*
G01*
X1864995Y2134996D03*
G01*
X1864995Y1880996D03*
G01*
X1864995Y1626996D03*
G01*
X1864995Y1372996D03*
G01*
X1864995Y1118996D03*
D19*
G01*
X1865007Y864997D03*
D18*
G01*
X1864995Y610996D03*
D20*
G01*
X3922064Y4651527D03*
G01*
X3922064Y4384827D03*
G01*
X3922064Y4118127D03*
G01*
X3922064Y3851427D03*
G01*
X3922064Y3584727D03*
G01*
X3922064Y3318027D03*
G01*
X3922064Y3051327D03*
G01*
X3922064Y2784627D03*
G01*
X3922064Y2517927D03*
G01*
X3922064Y2251227D03*
G01*
X3922064Y1984527D03*
G01*
X3922064Y1717827D03*
G01*
X3922064Y1451127D03*
G01*
X3922064Y1184427D03*
D21*
G01*
X3922064Y917702D03*
G01*
X6462064Y917702D03*
D20*
G01*
X6462064Y1184402D03*
G01*
X6462064Y1451102D03*
G01*
X6462064Y1717802D03*
G01*
X6462064Y1984502D03*
G01*
X6462064Y2251202D03*
G01*
X6462064Y2517902D03*
G01*
X6462064Y2784602D03*
G01*
X6462064Y3051302D03*
G01*
X6462064Y3318002D03*
G01*
X6462064Y3584702D03*
G01*
X6462064Y3851402D03*
G01*
X6462064Y4118102D03*
G01*
X6462064Y4384802D03*
G01*
X6462064Y4651502D03*
D22*
G01*
X3937000Y5461000D03*
G01*
X4191000Y5461000D03*
G01*
X3683000Y5461000D03*
G01*
X3429000Y5461000D03*
G01*
X3175000Y5461000D03*
G01*
X4445000Y5461000D03*
G01*
X4699000Y5461000D03*
G01*
X4953000Y5461000D03*
D23*
G01*
X6899986Y6726986D03*
G01*
X6899986Y6472986D03*
G01*
X6899986Y3126994D03*
G01*
X6899986Y2872994D03*
G01*
X2247900Y5448300D03*
G01*
X2247900Y5194300D03*
D24*
G01*
X1587500Y6214287D03*
G01*
X1587500Y6464300D03*
G01*
X1587500Y6714286D03*
D25*
G01*
X2612186Y6553200D03*
G01*
X2112213Y6553200D03*
M02*
